<svg xmlns="http://www.w3.org/2000/svg" version="1.1" width="1000" height="800" viewBox="0 0 150 150">
<circle cx="44.48" cy="77.54" r="3" fill="blue" />
<circle cx="37.33" cy="33.12" r="3" fill="blue" />
<circle cx="39.67" cy="69.77" r="3" fill="blue" />
<circle cx="48.05" cy="58.45" r="3" fill="blue" />
<circle cx="84.70" cy="23.97" r="3" fill="blue" />
<circle cx="98.29" cy="22.19" r="3" fill="blue" />
<circle cx="84.29" cy="17.24" r="3" fill="blue" />
<circle cx="86.54" cy="57.48" r="3" fill="blue" />
<circle cx="53.07" cy="4.74" r="3" fill="blue" />
<circle cx="15.89" cy="32.23" r="3" fill="blue" />
<circle cx="21.39" cy="61.16" r="3" fill="blue" />
<circle cx="52.18" cy="57.24" r="3" fill="blue" />
<circle cx="91.85" cy="95.91" r="3" fill="blue" />
<circle cx="29.46" cy="78.14" r="3" fill="blue" />
<circle cx="14.79" cy="31.69" r="3" fill="blue" />
<circle cx="11.93" cy="9.58" r="3" fill="blue" />
<circle cx="99.72" cy="68.47" r="3" fill="blue" />
<circle cx="47.75" cy="16.25" r="3" fill="blue" />
<circle cx="21.05" cy="57.37" r="3" fill="blue" />
<circle cx="23.67" cy="79.16" r="3" fill="blue" />
<line x1="44.48" y1="77.54" x2="44.48" y2="77.54" stroke="black" stroke-width="0.10" stroke-opacity="0.10" />
<line x1="44.48" y1="77.54" x2="37.33" y2="33.12" stroke="black" stroke-width="0.10" stroke-opacity="0.10" />
<line x1="44.48" y1="77.54" x2="39.67" y2="69.77" stroke="black" stroke-width="0.10" stroke-opacity="0.10" />
<line x1="44.48" y1="77.54" x2="48.05" y2="58.45" stroke="black" stroke-width="2.88" stroke-opacity="0.96" />
<line x1="44.48" y1="77.54" x2="84.70" y2="23.97" stroke="black" stroke-width="0.10" stroke-opacity="0.10" />
<line x1="44.48" y1="77.54" x2="98.29" y2="22.19" stroke="black" stroke-width="0.10" stroke-opacity="0.10" />
<line x1="44.48" y1="77.54" x2="84.29" y2="17.24" stroke="black" stroke-width="0.10" stroke-opacity="0.10" />
<line x1="44.48" y1="77.54" x2="86.54" y2="57.48" stroke="black" stroke-width="0.10" stroke-opacity="0.10" />
<line x1="44.48" y1="77.54" x2="53.07" y2="4.74" stroke="black" stroke-width="0.10" stroke-opacity="0.10" />
<line x1="44.48" y1="77.54" x2="15.89" y2="32.23" stroke="black" stroke-width="0.10" stroke-opacity="0.10" />
<line x1="44.48" y1="77.54" x2="21.39" y2="61.16" stroke="black" stroke-width="0.10" stroke-opacity="0.10" />
<line x1="44.48" y1="77.54" x2="52.18" y2="57.24" stroke="black" stroke-width="0.10" stroke-opacity="0.10" />
<line x1="44.48" y1="77.54" x2="91.85" y2="95.91" stroke="black" stroke-width="0.10" stroke-opacity="0.10" />
<line x1="44.48" y1="77.54" x2="29.46" y2="78.14" stroke="black" stroke-width="0.10" stroke-opacity="0.10" />
<line x1="44.48" y1="77.54" x2="14.79" y2="31.69" stroke="black" stroke-width="0.10" stroke-opacity="0.10" />
<line x1="44.48" y1="77.54" x2="11.93" y2="9.58" stroke="black" stroke-width="0.10" stroke-opacity="0.10" />
<line x1="44.48" y1="77.54" x2="99.72" y2="68.47" stroke="black" stroke-width="0.10" stroke-opacity="0.10" />
<line x1="44.48" y1="77.54" x2="47.75" y2="16.25" stroke="black" stroke-width="0.10" stroke-opacity="0.10" />
<line x1="44.48" y1="77.54" x2="21.05" y2="57.37" stroke="black" stroke-width="0.10" stroke-opacity="0.10" />
<line x1="44.48" y1="77.54" x2="23.67" y2="79.16" stroke="black" stroke-width="0.10" stroke-opacity="0.10" />
<line x1="37.33" y1="33.12" x2="44.48" y2="77.54" stroke="black" stroke-width="0.10" stroke-opacity="0.10" />
<line x1="37.33" y1="33.12" x2="37.33" y2="33.12" stroke="black" stroke-width="0.10" stroke-opacity="0.10" />
<line x1="37.33" y1="33.12" x2="39.67" y2="69.77" stroke="black" stroke-width="0.10" stroke-opacity="0.10" />
<line x1="37.33" y1="33.12" x2="48.05" y2="58.45" stroke="black" stroke-width="0.10" stroke-opacity="0.10" />
<line x1="37.33" y1="33.12" x2="84.70" y2="23.97" stroke="black" stroke-width="0.10" stroke-opacity="0.10" />
<line x1="37.33" y1="33.12" x2="98.29" y2="22.19" stroke="black" stroke-width="0.10" stroke-opacity="0.10" />
<line x1="37.33" y1="33.12" x2="84.29" y2="17.24" stroke="black" stroke-width="0.10" stroke-opacity="0.10" />
<line x1="37.33" y1="33.12" x2="86.54" y2="57.48" stroke="black" stroke-width="0.10" stroke-opacity="0.10" />
<line x1="37.33" y1="33.12" x2="53.07" y2="4.74" stroke="black" stroke-width="0.10" stroke-opacity="0.10" />
<line x1="37.33" y1="33.12" x2="15.89" y2="32.23" stroke="black" stroke-width="0.10" stroke-opacity="0.10" />
<line x1="37.33" y1="33.12" x2="21.39" y2="61.16" stroke="black" stroke-width="0.10" stroke-opacity="0.10" />
<line x1="37.33" y1="33.12" x2="52.18" y2="57.24" stroke="black" stroke-width="0.10" stroke-opacity="0.10" />
<line x1="37.33" y1="33.12" x2="91.85" y2="95.91" stroke="black" stroke-width="0.10" stroke-opacity="0.10" />
<line x1="37.33" y1="33.12" x2="29.46" y2="78.14" stroke="black" stroke-width="0.10" stroke-opacity="0.10" />
<line x1="37.33" y1="33.12" x2="14.79" y2="31.69" stroke="black" stroke-width="2.92" stroke-opacity="0.97" />
<line x1="37.33" y1="33.12" x2="11.93" y2="9.58" stroke="black" stroke-width="0.10" stroke-opacity="0.10" />
<line x1="37.33" y1="33.12" x2="99.72" y2="68.47" stroke="black" stroke-width="0.10" stroke-opacity="0.10" />
<line x1="37.33" y1="33.12" x2="47.75" y2="16.25" stroke="black" stroke-width="0.10" stroke-opacity="0.10" />
<line x1="37.33" y1="33.12" x2="21.05" y2="57.37" stroke="black" stroke-width="0.10" stroke-opacity="0.10" />
<line x1="37.33" y1="33.12" x2="23.67" y2="79.16" stroke="black" stroke-width="0.10" stroke-opacity="0.10" />
<line x1="39.67" y1="69.77" x2="44.48" y2="77.54" stroke="black" stroke-width="2.90" stroke-opacity="0.97" />
<line x1="39.67" y1="69.77" x2="37.33" y2="33.12" stroke="black" stroke-width="0.10" stroke-opacity="0.10" />
<line x1="39.67" y1="69.77" x2="39.67" y2="69.77" stroke="black" stroke-width="0.10" stroke-opacity="0.10" />
<line x1="39.67" y1="69.77" x2="48.05" y2="58.45" stroke="black" stroke-width="0.10" stroke-opacity="0.10" />
<line x1="39.67" y1="69.77" x2="84.70" y2="23.97" stroke="black" stroke-width="0.10" stroke-opacity="0.10" />
<line x1="39.67" y1="69.77" x2="98.29" y2="22.19" stroke="black" stroke-width="0.10" stroke-opacity="0.10" />
<line x1="39.67" y1="69.77" x2="84.29" y2="17.24" stroke="black" stroke-width="0.10" stroke-opacity="0.10" />
<line x1="39.67" y1="69.77" x2="86.54" y2="57.48" stroke="black" stroke-width="0.10" stroke-opacity="0.10" />
<line x1="39.67" y1="69.77" x2="53.07" y2="4.74" stroke="black" stroke-width="0.10" stroke-opacity="0.10" />
<line x1="39.67" y1="69.77" x2="15.89" y2="32.23" stroke="black" stroke-width="0.10" stroke-opacity="0.10" />
<line x1="39.67" y1="69.77" x2="21.39" y2="61.16" stroke="black" stroke-width="0.10" stroke-opacity="0.10" />
<line x1="39.67" y1="69.77" x2="52.18" y2="57.24" stroke="black" stroke-width="0.10" stroke-opacity="0.10" />
<line x1="39.67" y1="69.77" x2="91.85" y2="95.91" stroke="black" stroke-width="0.10" stroke-opacity="0.10" />
<line x1="39.67" y1="69.77" x2="29.46" y2="78.14" stroke="black" stroke-width="0.10" stroke-opacity="0.10" />
<line x1="39.67" y1="69.77" x2="14.79" y2="31.69" stroke="black" stroke-width="0.10" stroke-opacity="0.10" />
<line x1="39.67" y1="69.77" x2="11.93" y2="9.58" stroke="black" stroke-width="0.10" stroke-opacity="0.10" />
<line x1="39.67" y1="69.77" x2="99.72" y2="68.47" stroke="black" stroke-width="0.10" stroke-opacity="0.10" />
<line x1="39.67" y1="69.77" x2="47.75" y2="16.25" stroke="black" stroke-width="0.10" stroke-opacity="0.10" />
<line x1="39.67" y1="69.77" x2="21.05" y2="57.37" stroke="black" stroke-width="0.10" stroke-opacity="0.10" />
<line x1="39.67" y1="69.77" x2="23.67" y2="79.16" stroke="black" stroke-width="0.10" stroke-opacity="0.10" />
<line x1="48.05" y1="58.45" x2="44.48" y2="77.54" stroke="black" stroke-width="0.10" stroke-opacity="0.10" />
<line x1="48.05" y1="58.45" x2="37.33" y2="33.12" stroke="black" stroke-width="0.10" stroke-opacity="0.10" />
<line x1="48.05" y1="58.45" x2="39.67" y2="69.77" stroke="black" stroke-width="0.10" stroke-opacity="0.10" />
<line x1="48.05" y1="58.45" x2="48.05" y2="58.45" stroke="black" stroke-width="0.10" stroke-opacity="0.10" />
<line x1="48.05" y1="58.45" x2="84.70" y2="23.97" stroke="black" stroke-width="0.10" stroke-opacity="0.10" />
<line x1="48.05" y1="58.45" x2="98.29" y2="22.19" stroke="black" stroke-width="0.10" stroke-opacity="0.10" />
<line x1="48.05" y1="58.45" x2="84.29" y2="17.24" stroke="black" stroke-width="0.10" stroke-opacity="0.10" />
<line x1="48.05" y1="58.45" x2="86.54" y2="57.48" stroke="black" stroke-width="0.10" stroke-opacity="0.10" />
<line x1="48.05" y1="58.45" x2="53.07" y2="4.74" stroke="black" stroke-width="0.10" stroke-opacity="0.10" />
<line x1="48.05" y1="58.45" x2="15.89" y2="32.23" stroke="black" stroke-width="0.10" stroke-opacity="0.10" />
<line x1="48.05" y1="58.45" x2="21.39" y2="61.16" stroke="black" stroke-width="0.10" stroke-opacity="0.10" />
<line x1="48.05" y1="58.45" x2="52.18" y2="57.24" stroke="black" stroke-width="2.85" stroke-opacity="0.95" />
<line x1="48.05" y1="58.45" x2="91.85" y2="95.91" stroke="black" stroke-width="0.10" stroke-opacity="0.10" />
<line x1="48.05" y1="58.45" x2="29.46" y2="78.14" stroke="black" stroke-width="0.10" stroke-opacity="0.10" />
<line x1="48.05" y1="58.45" x2="14.79" y2="31.69" stroke="black" stroke-width="0.10" stroke-opacity="0.10" />
<line x1="48.05" y1="58.45" x2="11.93" y2="9.58" stroke="black" stroke-width="0.10" stroke-opacity="0.10" />
<line x1="48.05" y1="58.45" x2="99.72" y2="68.47" stroke="black" stroke-width="0.10" stroke-opacity="0.10" />
<line x1="48.05" y1="58.45" x2="47.75" y2="16.25" stroke="black" stroke-width="0.10" stroke-opacity="0.10" />
<line x1="48.05" y1="58.45" x2="21.05" y2="57.37" stroke="black" stroke-width="0.10" stroke-opacity="0.10" />
<line x1="48.05" y1="58.45" x2="23.67" y2="79.16" stroke="black" stroke-width="0.10" stroke-opacity="0.10" />
<line x1="84.70" y1="23.97" x2="44.48" y2="77.54" stroke="black" stroke-width="0.10" stroke-opacity="0.10" />
<line x1="84.70" y1="23.97" x2="37.33" y2="33.12" stroke="black" stroke-width="0.10" stroke-opacity="0.10" />
<line x1="84.70" y1="23.97" x2="39.67" y2="69.77" stroke="black" stroke-width="0.10" stroke-opacity="0.10" />
<line x1="84.70" y1="23.97" x2="48.05" y2="58.45" stroke="black" stroke-width="0.10" stroke-opacity="0.10" />
<line x1="84.70" y1="23.97" x2="84.70" y2="23.97" stroke="black" stroke-width="0.10" stroke-opacity="0.10" />
<line x1="84.70" y1="23.97" x2="98.29" y2="22.19" stroke="black" stroke-width="0.10" stroke-opacity="0.10" />
<line x1="84.70" y1="23.97" x2="84.29" y2="17.24" stroke="black" stroke-width="2.88" stroke-opacity="0.96" />
<line x1="84.70" y1="23.97" x2="86.54" y2="57.48" stroke="black" stroke-width="0.10" stroke-opacity="0.10" />
<line x1="84.70" y1="23.97" x2="53.07" y2="4.74" stroke="black" stroke-width="0.10" stroke-opacity="0.10" />
<line x1="84.70" y1="23.97" x2="15.89" y2="32.23" stroke="black" stroke-width="0.10" stroke-opacity="0.10" />
<line x1="84.70" y1="23.97" x2="21.39" y2="61.16" stroke="black" stroke-width="0.10" stroke-opacity="0.10" />
<line x1="84.70" y1="23.97" x2="52.18" y2="57.24" stroke="black" stroke-width="0.10" stroke-opacity="0.10" />
<line x1="84.70" y1="23.97" x2="91.85" y2="95.91" stroke="black" stroke-width="0.10" stroke-opacity="0.10" />
<line x1="84.70" y1="23.97" x2="29.46" y2="78.14" stroke="black" stroke-width="0.10" stroke-opacity="0.10" />
<line x1="84.70" y1="23.97" x2="14.79" y2="31.69" stroke="black" stroke-width="0.10" stroke-opacity="0.10" />
<line x1="84.70" y1="23.97" x2="11.93" y2="9.58" stroke="black" stroke-width="0.10" stroke-opacity="0.10" />
<line x1="84.70" y1="23.97" x2="99.72" y2="68.47" stroke="black" stroke-width="0.10" stroke-opacity="0.10" />
<line x1="84.70" y1="23.97" x2="47.75" y2="16.25" stroke="black" stroke-width="0.10" stroke-opacity="0.10" />
<line x1="84.70" y1="23.97" x2="21.05" y2="57.37" stroke="black" stroke-width="0.10" stroke-opacity="0.10" />
<line x1="84.70" y1="23.97" x2="23.67" y2="79.16" stroke="black" stroke-width="0.10" stroke-opacity="0.10" />
<line x1="98.29" y1="22.19" x2="44.48" y2="77.54" stroke="black" stroke-width="0.10" stroke-opacity="0.10" />
<line x1="98.29" y1="22.19" x2="37.33" y2="33.12" stroke="black" stroke-width="0.10" stroke-opacity="0.10" />
<line x1="98.29" y1="22.19" x2="39.67" y2="69.77" stroke="black" stroke-width="0.10" stroke-opacity="0.10" />
<line x1="98.29" y1="22.19" x2="48.05" y2="58.45" stroke="black" stroke-width="0.10" stroke-opacity="0.10" />
<line x1="98.29" y1="22.19" x2="84.70" y2="23.97" stroke="black" stroke-width="0.10" stroke-opacity="0.10" />
<line x1="98.29" y1="22.19" x2="98.29" y2="22.19" stroke="black" stroke-width="0.10" stroke-opacity="0.10" />
<line x1="98.29" y1="22.19" x2="84.29" y2="17.24" stroke="black" stroke-width="0.10" stroke-opacity="0.10" />
<line x1="98.29" y1="22.19" x2="86.54" y2="57.48" stroke="black" stroke-width="0.10" stroke-opacity="0.10" />
<line x1="98.29" y1="22.19" x2="53.07" y2="4.74" stroke="black" stroke-width="0.10" stroke-opacity="0.10" />
<line x1="98.29" y1="22.19" x2="15.89" y2="32.23" stroke="black" stroke-width="0.10" stroke-opacity="0.10" />
<line x1="98.29" y1="22.19" x2="21.39" y2="61.16" stroke="black" stroke-width="0.10" stroke-opacity="0.10" />
<line x1="98.29" y1="22.19" x2="52.18" y2="57.24" stroke="black" stroke-width="0.10" stroke-opacity="0.10" />
<line x1="98.29" y1="22.19" x2="91.85" y2="95.91" stroke="black" stroke-width="0.10" stroke-opacity="0.10" />
<line x1="98.29" y1="22.19" x2="29.46" y2="78.14" stroke="black" stroke-width="0.10" stroke-opacity="0.10" />
<line x1="98.29" y1="22.19" x2="14.79" y2="31.69" stroke="black" stroke-width="0.10" stroke-opacity="0.10" />
<line x1="98.29" y1="22.19" x2="11.93" y2="9.58" stroke="black" stroke-width="0.10" stroke-opacity="0.10" />
<line x1="98.29" y1="22.19" x2="99.72" y2="68.47" stroke="black" stroke-width="0.10" stroke-opacity="0.10" />
<line x1="98.29" y1="22.19" x2="47.75" y2="16.25" stroke="black" stroke-width="2.89" stroke-opacity="0.97" />
<line x1="98.29" y1="22.19" x2="21.05" y2="57.37" stroke="black" stroke-width="0.10" stroke-opacity="0.10" />
<line x1="98.29" y1="22.19" x2="23.67" y2="79.16" stroke="black" stroke-width="0.10" stroke-opacity="0.10" />
<line x1="84.29" y1="17.24" x2="44.48" y2="77.54" stroke="black" stroke-width="0.10" stroke-opacity="0.10" />
<line x1="84.29" y1="17.24" x2="37.33" y2="33.12" stroke="black" stroke-width="0.10" stroke-opacity="0.10" />
<line x1="84.29" y1="17.24" x2="39.67" y2="69.77" stroke="black" stroke-width="0.10" stroke-opacity="0.10" />
<line x1="84.29" y1="17.24" x2="48.05" y2="58.45" stroke="black" stroke-width="0.10" stroke-opacity="0.10" />
<line x1="84.29" y1="17.24" x2="84.70" y2="23.97" stroke="black" stroke-width="0.10" stroke-opacity="0.10" />
<line x1="84.29" y1="17.24" x2="98.29" y2="22.19" stroke="black" stroke-width="2.97" stroke-opacity="0.99" />
<line x1="84.29" y1="17.24" x2="84.29" y2="17.24" stroke="black" stroke-width="0.10" stroke-opacity="0.10" />
<line x1="84.29" y1="17.24" x2="86.54" y2="57.48" stroke="black" stroke-width="0.10" stroke-opacity="0.10" />
<line x1="84.29" y1="17.24" x2="53.07" y2="4.74" stroke="black" stroke-width="0.10" stroke-opacity="0.10" />
<line x1="84.29" y1="17.24" x2="15.89" y2="32.23" stroke="black" stroke-width="0.10" stroke-opacity="0.10" />
<line x1="84.29" y1="17.24" x2="21.39" y2="61.16" stroke="black" stroke-width="0.10" stroke-opacity="0.10" />
<line x1="84.29" y1="17.24" x2="52.18" y2="57.24" stroke="black" stroke-width="0.10" stroke-opacity="0.10" />
<line x1="84.29" y1="17.24" x2="91.85" y2="95.91" stroke="black" stroke-width="0.10" stroke-opacity="0.10" />
<line x1="84.29" y1="17.24" x2="29.46" y2="78.14" stroke="black" stroke-width="0.10" stroke-opacity="0.10" />
<line x1="84.29" y1="17.24" x2="14.79" y2="31.69" stroke="black" stroke-width="0.10" stroke-opacity="0.10" />
<line x1="84.29" y1="17.24" x2="11.93" y2="9.58" stroke="black" stroke-width="0.10" stroke-opacity="0.10" />
<line x1="84.29" y1="17.24" x2="99.72" y2="68.47" stroke="black" stroke-width="0.10" stroke-opacity="0.10" />
<line x1="84.29" y1="17.24" x2="47.75" y2="16.25" stroke="black" stroke-width="0.10" stroke-opacity="0.10" />
<line x1="84.29" y1="17.24" x2="21.05" y2="57.37" stroke="black" stroke-width="0.10" stroke-opacity="0.10" />
<line x1="84.29" y1="17.24" x2="23.67" y2="79.16" stroke="black" stroke-width="0.10" stroke-opacity="0.10" />
<line x1="86.54" y1="57.48" x2="44.48" y2="77.54" stroke="black" stroke-width="0.10" stroke-opacity="0.10" />
<line x1="86.54" y1="57.48" x2="37.33" y2="33.12" stroke="black" stroke-width="0.10" stroke-opacity="0.10" />
<line x1="86.54" y1="57.48" x2="39.67" y2="69.77" stroke="black" stroke-width="0.10" stroke-opacity="0.10" />
<line x1="86.54" y1="57.48" x2="48.05" y2="58.45" stroke="black" stroke-width="0.10" stroke-opacity="0.10" />
<line x1="86.54" y1="57.48" x2="84.70" y2="23.97" stroke="black" stroke-width="3.00" stroke-opacity="1.00" />
<line x1="86.54" y1="57.48" x2="98.29" y2="22.19" stroke="black" stroke-width="0.10" stroke-opacity="0.10" />
<line x1="86.54" y1="57.48" x2="84.29" y2="17.24" stroke="black" stroke-width="0.10" stroke-opacity="0.10" />
<line x1="86.54" y1="57.48" x2="86.54" y2="57.48" stroke="black" stroke-width="0.10" stroke-opacity="0.10" />
<line x1="86.54" y1="57.48" x2="53.07" y2="4.74" stroke="black" stroke-width="0.10" stroke-opacity="0.10" />
<line x1="86.54" y1="57.48" x2="15.89" y2="32.23" stroke="black" stroke-width="0.10" stroke-opacity="0.10" />
<line x1="86.54" y1="57.48" x2="21.39" y2="61.16" stroke="black" stroke-width="0.10" stroke-opacity="0.10" />
<line x1="86.54" y1="57.48" x2="52.18" y2="57.24" stroke="black" stroke-width="0.10" stroke-opacity="0.10" />
<line x1="86.54" y1="57.48" x2="91.85" y2="95.91" stroke="black" stroke-width="0.10" stroke-opacity="0.10" />
<line x1="86.54" y1="57.48" x2="29.46" y2="78.14" stroke="black" stroke-width="0.10" stroke-opacity="0.10" />
<line x1="86.54" y1="57.48" x2="14.79" y2="31.69" stroke="black" stroke-width="0.10" stroke-opacity="0.10" />
<line x1="86.54" y1="57.48" x2="11.93" y2="9.58" stroke="black" stroke-width="0.10" stroke-opacity="0.10" />
<line x1="86.54" y1="57.48" x2="99.72" y2="68.47" stroke="black" stroke-width="0.10" stroke-opacity="0.10" />
<line x1="86.54" y1="57.48" x2="47.75" y2="16.25" stroke="black" stroke-width="0.10" stroke-opacity="0.10" />
<line x1="86.54" y1="57.48" x2="21.05" y2="57.37" stroke="black" stroke-width="0.10" stroke-opacity="0.10" />
<line x1="86.54" y1="57.48" x2="23.67" y2="79.16" stroke="black" stroke-width="0.10" stroke-opacity="0.10" />
<line x1="53.07" y1="4.74" x2="44.48" y2="77.54" stroke="black" stroke-width="0.10" stroke-opacity="0.10" />
<line x1="53.07" y1="4.74" x2="37.33" y2="33.12" stroke="black" stroke-width="0.10" stroke-opacity="0.10" />
<line x1="53.07" y1="4.74" x2="39.67" y2="69.77" stroke="black" stroke-width="0.10" stroke-opacity="0.10" />
<line x1="53.07" y1="4.74" x2="48.05" y2="58.45" stroke="black" stroke-width="0.10" stroke-opacity="0.10" />
<line x1="53.07" y1="4.74" x2="84.70" y2="23.97" stroke="black" stroke-width="0.10" stroke-opacity="0.10" />
<line x1="53.07" y1="4.74" x2="98.29" y2="22.19" stroke="black" stroke-width="0.10" stroke-opacity="0.10" />
<line x1="53.07" y1="4.74" x2="84.29" y2="17.24" stroke="black" stroke-width="0.10" stroke-opacity="0.10" />
<line x1="53.07" y1="4.74" x2="86.54" y2="57.48" stroke="black" stroke-width="0.10" stroke-opacity="0.10" />
<line x1="53.07" y1="4.74" x2="53.07" y2="4.74" stroke="black" stroke-width="0.10" stroke-opacity="0.10" />
<line x1="53.07" y1="4.74" x2="15.89" y2="32.23" stroke="black" stroke-width="0.10" stroke-opacity="0.10" />
<line x1="53.07" y1="4.74" x2="21.39" y2="61.16" stroke="black" stroke-width="0.10" stroke-opacity="0.10" />
<line x1="53.07" y1="4.74" x2="52.18" y2="57.24" stroke="black" stroke-width="0.10" stroke-opacity="0.10" />
<line x1="53.07" y1="4.74" x2="91.85" y2="95.91" stroke="black" stroke-width="0.10" stroke-opacity="0.10" />
<line x1="53.07" y1="4.74" x2="29.46" y2="78.14" stroke="black" stroke-width="0.10" stroke-opacity="0.10" />
<line x1="53.07" y1="4.74" x2="14.79" y2="31.69" stroke="black" stroke-width="0.10" stroke-opacity="0.10" />
<line x1="53.07" y1="4.74" x2="11.93" y2="9.58" stroke="black" stroke-width="2.97" stroke-opacity="0.99" />
<line x1="53.07" y1="4.74" x2="99.72" y2="68.47" stroke="black" stroke-width="0.10" stroke-opacity="0.10" />
<line x1="53.07" y1="4.74" x2="47.75" y2="16.25" stroke="black" stroke-width="0.10" stroke-opacity="0.10" />
<line x1="53.07" y1="4.74" x2="21.05" y2="57.37" stroke="black" stroke-width="0.10" stroke-opacity="0.10" />
<line x1="53.07" y1="4.74" x2="23.67" y2="79.16" stroke="black" stroke-width="0.10" stroke-opacity="0.10" />
<line x1="15.89" y1="32.23" x2="44.48" y2="77.54" stroke="black" stroke-width="0.10" stroke-opacity="0.10" />
<line x1="15.89" y1="32.23" x2="37.33" y2="33.12" stroke="black" stroke-width="0.10" stroke-opacity="0.10" />
<line x1="15.89" y1="32.23" x2="39.67" y2="69.77" stroke="black" stroke-width="0.10" stroke-opacity="0.10" />
<line x1="15.89" y1="32.23" x2="48.05" y2="58.45" stroke="black" stroke-width="0.10" stroke-opacity="0.10" />
<line x1="15.89" y1="32.23" x2="84.70" y2="23.97" stroke="black" stroke-width="0.10" stroke-opacity="0.10" />
<line x1="15.89" y1="32.23" x2="98.29" y2="22.19" stroke="black" stroke-width="0.10" stroke-opacity="0.10" />
<line x1="15.89" y1="32.23" x2="84.29" y2="17.24" stroke="black" stroke-width="0.10" stroke-opacity="0.10" />
<line x1="15.89" y1="32.23" x2="86.54" y2="57.48" stroke="black" stroke-width="0.10" stroke-opacity="0.10" />
<line x1="15.89" y1="32.23" x2="53.07" y2="4.74" stroke="black" stroke-width="0.10" stroke-opacity="0.10" />
<line x1="15.89" y1="32.23" x2="15.89" y2="32.23" stroke="black" stroke-width="0.10" stroke-opacity="0.10" />
<line x1="15.89" y1="32.23" x2="21.39" y2="61.16" stroke="black" stroke-width="0.10" stroke-opacity="0.10" />
<line x1="15.89" y1="32.23" x2="52.18" y2="57.24" stroke="black" stroke-width="0.10" stroke-opacity="0.10" />
<line x1="15.89" y1="32.23" x2="91.85" y2="95.91" stroke="black" stroke-width="0.10" stroke-opacity="0.10" />
<line x1="15.89" y1="32.23" x2="29.46" y2="78.14" stroke="black" stroke-width="0.10" stroke-opacity="0.10" />
<line x1="15.89" y1="32.23" x2="14.79" y2="31.69" stroke="black" stroke-width="0.10" stroke-opacity="0.10" />
<line x1="15.89" y1="32.23" x2="11.93" y2="9.58" stroke="black" stroke-width="0.10" stroke-opacity="0.10" />
<line x1="15.89" y1="32.23" x2="99.72" y2="68.47" stroke="black" stroke-width="0.10" stroke-opacity="0.10" />
<line x1="15.89" y1="32.23" x2="47.75" y2="16.25" stroke="black" stroke-width="0.10" stroke-opacity="0.10" />
<line x1="15.89" y1="32.23" x2="21.05" y2="57.37" stroke="black" stroke-width="0.10" stroke-opacity="0.10" />
<line x1="15.89" y1="32.23" x2="23.67" y2="79.16" stroke="black" stroke-width="2.93" stroke-opacity="0.98" />
<line x1="21.39" y1="61.16" x2="44.48" y2="77.54" stroke="black" stroke-width="0.10" stroke-opacity="0.10" />
<line x1="21.39" y1="61.16" x2="37.33" y2="33.12" stroke="black" stroke-width="0.10" stroke-opacity="0.10" />
<line x1="21.39" y1="61.16" x2="39.67" y2="69.77" stroke="black" stroke-width="0.10" stroke-opacity="0.10" />
<line x1="21.39" y1="61.16" x2="48.05" y2="58.45" stroke="black" stroke-width="0.10" stroke-opacity="0.10" />
<line x1="21.39" y1="61.16" x2="84.70" y2="23.97" stroke="black" stroke-width="0.10" stroke-opacity="0.10" />
<line x1="21.39" y1="61.16" x2="98.29" y2="22.19" stroke="black" stroke-width="0.10" stroke-opacity="0.10" />
<line x1="21.39" y1="61.16" x2="84.29" y2="17.24" stroke="black" stroke-width="0.10" stroke-opacity="0.10" />
<line x1="21.39" y1="61.16" x2="86.54" y2="57.48" stroke="black" stroke-width="0.10" stroke-opacity="0.10" />
<line x1="21.39" y1="61.16" x2="53.07" y2="4.74" stroke="black" stroke-width="0.10" stroke-opacity="0.10" />
<line x1="21.39" y1="61.16" x2="15.89" y2="32.23" stroke="black" stroke-width="0.10" stroke-opacity="0.10" />
<line x1="21.39" y1="61.16" x2="21.39" y2="61.16" stroke="black" stroke-width="0.10" stroke-opacity="0.10" />
<line x1="21.39" y1="61.16" x2="52.18" y2="57.24" stroke="black" stroke-width="0.10" stroke-opacity="0.10" />
<line x1="21.39" y1="61.16" x2="91.85" y2="95.91" stroke="black" stroke-width="0.10" stroke-opacity="0.10" />
<line x1="21.39" y1="61.16" x2="29.46" y2="78.14" stroke="black" stroke-width="0.10" stroke-opacity="0.10" />
<line x1="21.39" y1="61.16" x2="14.79" y2="31.69" stroke="black" stroke-width="0.10" stroke-opacity="0.10" />
<line x1="21.39" y1="61.16" x2="11.93" y2="9.58" stroke="black" stroke-width="0.10" stroke-opacity="0.10" />
<line x1="21.39" y1="61.16" x2="99.72" y2="68.47" stroke="black" stroke-width="0.10" stroke-opacity="0.10" />
<line x1="21.39" y1="61.16" x2="47.75" y2="16.25" stroke="black" stroke-width="0.10" stroke-opacity="0.10" />
<line x1="21.39" y1="61.16" x2="21.05" y2="57.37" stroke="black" stroke-width="2.89" stroke-opacity="0.96" />
<line x1="21.39" y1="61.16" x2="23.67" y2="79.16" stroke="black" stroke-width="0.10" stroke-opacity="0.10" />
<line x1="52.18" y1="57.24" x2="44.48" y2="77.54" stroke="black" stroke-width="0.10" stroke-opacity="0.10" />
<line x1="52.18" y1="57.24" x2="37.33" y2="33.12" stroke="black" stroke-width="0.10" stroke-opacity="0.10" />
<line x1="52.18" y1="57.24" x2="39.67" y2="69.77" stroke="black" stroke-width="0.10" stroke-opacity="0.10" />
<line x1="52.18" y1="57.24" x2="48.05" y2="58.45" stroke="black" stroke-width="0.10" stroke-opacity="0.10" />
<line x1="52.18" y1="57.24" x2="84.70" y2="23.97" stroke="black" stroke-width="0.10" stroke-opacity="0.10" />
<line x1="52.18" y1="57.24" x2="98.29" y2="22.19" stroke="black" stroke-width="0.10" stroke-opacity="0.10" />
<line x1="52.18" y1="57.24" x2="84.29" y2="17.24" stroke="black" stroke-width="0.10" stroke-opacity="0.10" />
<line x1="52.18" y1="57.24" x2="86.54" y2="57.48" stroke="black" stroke-width="0.10" stroke-opacity="0.10" />
<line x1="52.18" y1="57.24" x2="53.07" y2="4.74" stroke="black" stroke-width="0.10" stroke-opacity="0.10" />
<line x1="52.18" y1="57.24" x2="15.89" y2="32.23" stroke="black" stroke-width="0.10" stroke-opacity="0.10" />
<line x1="52.18" y1="57.24" x2="21.39" y2="61.16" stroke="black" stroke-width="2.95" stroke-opacity="0.98" />
<line x1="52.18" y1="57.24" x2="52.18" y2="57.24" stroke="black" stroke-width="0.10" stroke-opacity="0.10" />
<line x1="52.18" y1="57.24" x2="91.85" y2="95.91" stroke="black" stroke-width="0.10" stroke-opacity="0.10" />
<line x1="52.18" y1="57.24" x2="29.46" y2="78.14" stroke="black" stroke-width="0.10" stroke-opacity="0.10" />
<line x1="52.18" y1="57.24" x2="14.79" y2="31.69" stroke="black" stroke-width="0.10" stroke-opacity="0.10" />
<line x1="52.18" y1="57.24" x2="11.93" y2="9.58" stroke="black" stroke-width="0.10" stroke-opacity="0.10" />
<line x1="52.18" y1="57.24" x2="99.72" y2="68.47" stroke="black" stroke-width="0.10" stroke-opacity="0.10" />
<line x1="52.18" y1="57.24" x2="47.75" y2="16.25" stroke="black" stroke-width="0.10" stroke-opacity="0.10" />
<line x1="52.18" y1="57.24" x2="21.05" y2="57.37" stroke="black" stroke-width="0.10" stroke-opacity="0.10" />
<line x1="52.18" y1="57.24" x2="23.67" y2="79.16" stroke="black" stroke-width="0.10" stroke-opacity="0.10" />
<line x1="91.85" y1="95.91" x2="44.48" y2="77.54" stroke="black" stroke-width="0.10" stroke-opacity="0.10" />
<line x1="91.85" y1="95.91" x2="37.33" y2="33.12" stroke="black" stroke-width="0.10" stroke-opacity="0.10" />
<line x1="91.85" y1="95.91" x2="39.67" y2="69.77" stroke="black" stroke-width="0.10" stroke-opacity="0.10" />
<line x1="91.85" y1="95.91" x2="48.05" y2="58.45" stroke="black" stroke-width="0.10" stroke-opacity="0.10" />
<line x1="91.85" y1="95.91" x2="84.70" y2="23.97" stroke="black" stroke-width="0.10" stroke-opacity="0.10" />
<line x1="91.85" y1="95.91" x2="98.29" y2="22.19" stroke="black" stroke-width="0.10" stroke-opacity="0.10" />
<line x1="91.85" y1="95.91" x2="84.29" y2="17.24" stroke="black" stroke-width="0.10" stroke-opacity="0.10" />
<line x1="91.85" y1="95.91" x2="86.54" y2="57.48" stroke="black" stroke-width="0.10" stroke-opacity="0.10" />
<line x1="91.85" y1="95.91" x2="53.07" y2="4.74" stroke="black" stroke-width="0.10" stroke-opacity="0.10" />
<line x1="91.85" y1="95.91" x2="15.89" y2="32.23" stroke="black" stroke-width="0.10" stroke-opacity="0.10" />
<line x1="91.85" y1="95.91" x2="21.39" y2="61.16" stroke="black" stroke-width="0.10" stroke-opacity="0.10" />
<line x1="91.85" y1="95.91" x2="52.18" y2="57.24" stroke="black" stroke-width="0.10" stroke-opacity="0.10" />
<line x1="91.85" y1="95.91" x2="91.85" y2="95.91" stroke="black" stroke-width="0.10" stroke-opacity="0.10" />
<line x1="91.85" y1="95.91" x2="29.46" y2="78.14" stroke="black" stroke-width="0.10" stroke-opacity="0.10" />
<line x1="91.85" y1="95.91" x2="14.79" y2="31.69" stroke="black" stroke-width="0.10" stroke-opacity="0.10" />
<line x1="91.85" y1="95.91" x2="11.93" y2="9.58" stroke="black" stroke-width="0.10" stroke-opacity="0.10" />
<line x1="91.85" y1="95.91" x2="99.72" y2="68.47" stroke="black" stroke-width="2.88" stroke-opacity="0.96" />
<line x1="91.85" y1="95.91" x2="47.75" y2="16.25" stroke="black" stroke-width="0.10" stroke-opacity="0.10" />
<line x1="91.85" y1="95.91" x2="21.05" y2="57.37" stroke="black" stroke-width="0.10" stroke-opacity="0.10" />
<line x1="91.85" y1="95.91" x2="23.67" y2="79.16" stroke="black" stroke-width="0.10" stroke-opacity="0.10" />
<line x1="29.46" y1="78.14" x2="44.48" y2="77.54" stroke="black" stroke-width="0.10" stroke-opacity="0.10" />
<line x1="29.46" y1="78.14" x2="37.33" y2="33.12" stroke="black" stroke-width="0.10" stroke-opacity="0.10" />
<line x1="29.46" y1="78.14" x2="39.67" y2="69.77" stroke="black" stroke-width="2.94" stroke-opacity="0.98" />
<line x1="29.46" y1="78.14" x2="48.05" y2="58.45" stroke="black" stroke-width="0.10" stroke-opacity="0.10" />
<line x1="29.46" y1="78.14" x2="84.70" y2="23.97" stroke="black" stroke-width="0.10" stroke-opacity="0.10" />
<line x1="29.46" y1="78.14" x2="98.29" y2="22.19" stroke="black" stroke-width="0.10" stroke-opacity="0.10" />
<line x1="29.46" y1="78.14" x2="84.29" y2="17.24" stroke="black" stroke-width="0.10" stroke-opacity="0.10" />
<line x1="29.46" y1="78.14" x2="86.54" y2="57.48" stroke="black" stroke-width="0.10" stroke-opacity="0.10" />
<line x1="29.46" y1="78.14" x2="53.07" y2="4.74" stroke="black" stroke-width="0.10" stroke-opacity="0.10" />
<line x1="29.46" y1="78.14" x2="15.89" y2="32.23" stroke="black" stroke-width="0.10" stroke-opacity="0.10" />
<line x1="29.46" y1="78.14" x2="21.39" y2="61.16" stroke="black" stroke-width="0.10" stroke-opacity="0.10" />
<line x1="29.46" y1="78.14" x2="52.18" y2="57.24" stroke="black" stroke-width="0.10" stroke-opacity="0.10" />
<line x1="29.46" y1="78.14" x2="91.85" y2="95.91" stroke="black" stroke-width="0.10" stroke-opacity="0.10" />
<line x1="29.46" y1="78.14" x2="29.46" y2="78.14" stroke="black" stroke-width="0.10" stroke-opacity="0.10" />
<line x1="29.46" y1="78.14" x2="14.79" y2="31.69" stroke="black" stroke-width="0.10" stroke-opacity="0.10" />
<line x1="29.46" y1="78.14" x2="11.93" y2="9.58" stroke="black" stroke-width="0.10" stroke-opacity="0.10" />
<line x1="29.46" y1="78.14" x2="99.72" y2="68.47" stroke="black" stroke-width="0.10" stroke-opacity="0.10" />
<line x1="29.46" y1="78.14" x2="47.75" y2="16.25" stroke="black" stroke-width="0.10" stroke-opacity="0.10" />
<line x1="29.46" y1="78.14" x2="21.05" y2="57.37" stroke="black" stroke-width="0.10" stroke-opacity="0.10" />
<line x1="29.46" y1="78.14" x2="23.67" y2="79.16" stroke="black" stroke-width="0.10" stroke-opacity="0.10" />
<line x1="14.79" y1="31.69" x2="44.48" y2="77.54" stroke="black" stroke-width="0.10" stroke-opacity="0.10" />
<line x1="14.79" y1="31.69" x2="37.33" y2="33.12" stroke="black" stroke-width="0.10" stroke-opacity="0.10" />
<line x1="14.79" y1="31.69" x2="39.67" y2="69.77" stroke="black" stroke-width="0.10" stroke-opacity="0.10" />
<line x1="14.79" y1="31.69" x2="48.05" y2="58.45" stroke="black" stroke-width="0.10" stroke-opacity="0.10" />
<line x1="14.79" y1="31.69" x2="84.70" y2="23.97" stroke="black" stroke-width="0.10" stroke-opacity="0.10" />
<line x1="14.79" y1="31.69" x2="98.29" y2="22.19" stroke="black" stroke-width="0.10" stroke-opacity="0.10" />
<line x1="14.79" y1="31.69" x2="84.29" y2="17.24" stroke="black" stroke-width="0.10" stroke-opacity="0.10" />
<line x1="14.79" y1="31.69" x2="86.54" y2="57.48" stroke="black" stroke-width="0.10" stroke-opacity="0.10" />
<line x1="14.79" y1="31.69" x2="53.07" y2="4.74" stroke="black" stroke-width="0.10" stroke-opacity="0.10" />
<line x1="14.79" y1="31.69" x2="15.89" y2="32.23" stroke="black" stroke-width="2.72" stroke-opacity="0.91" />
<line x1="14.79" y1="31.69" x2="21.39" y2="61.16" stroke="black" stroke-width="0.10" stroke-opacity="0.10" />
<line x1="14.79" y1="31.69" x2="52.18" y2="57.24" stroke="black" stroke-width="0.10" stroke-opacity="0.10" />
<line x1="14.79" y1="31.69" x2="91.85" y2="95.91" stroke="black" stroke-width="0.10" stroke-opacity="0.10" />
<line x1="14.79" y1="31.69" x2="29.46" y2="78.14" stroke="black" stroke-width="0.10" stroke-opacity="0.10" />
<line x1="14.79" y1="31.69" x2="14.79" y2="31.69" stroke="black" stroke-width="0.10" stroke-opacity="0.10" />
<line x1="14.79" y1="31.69" x2="11.93" y2="9.58" stroke="black" stroke-width="0.10" stroke-opacity="0.10" />
<line x1="14.79" y1="31.69" x2="99.72" y2="68.47" stroke="black" stroke-width="0.10" stroke-opacity="0.10" />
<line x1="14.79" y1="31.69" x2="47.75" y2="16.25" stroke="black" stroke-width="0.10" stroke-opacity="0.10" />
<line x1="14.79" y1="31.69" x2="21.05" y2="57.37" stroke="black" stroke-width="0.10" stroke-opacity="0.10" />
<line x1="14.79" y1="31.69" x2="23.67" y2="79.16" stroke="black" stroke-width="0.10" stroke-opacity="0.10" />
<line x1="11.93" y1="9.58" x2="44.48" y2="77.54" stroke="black" stroke-width="0.10" stroke-opacity="0.10" />
<line x1="11.93" y1="9.58" x2="37.33" y2="33.12" stroke="black" stroke-width="2.88" stroke-opacity="0.96" />
<line x1="11.93" y1="9.58" x2="39.67" y2="69.77" stroke="black" stroke-width="0.10" stroke-opacity="0.10" />
<line x1="11.93" y1="9.58" x2="48.05" y2="58.45" stroke="black" stroke-width="0.10" stroke-opacity="0.10" />
<line x1="11.93" y1="9.58" x2="84.70" y2="23.97" stroke="black" stroke-width="0.10" stroke-opacity="0.10" />
<line x1="11.93" y1="9.58" x2="98.29" y2="22.19" stroke="black" stroke-width="0.10" stroke-opacity="0.10" />
<line x1="11.93" y1="9.58" x2="84.29" y2="17.24" stroke="black" stroke-width="0.10" stroke-opacity="0.10" />
<line x1="11.93" y1="9.58" x2="86.54" y2="57.48" stroke="black" stroke-width="0.10" stroke-opacity="0.10" />
<line x1="11.93" y1="9.58" x2="53.07" y2="4.74" stroke="black" stroke-width="0.10" stroke-opacity="0.10" />
<line x1="11.93" y1="9.58" x2="15.89" y2="32.23" stroke="black" stroke-width="0.10" stroke-opacity="0.10" />
<line x1="11.93" y1="9.58" x2="21.39" y2="61.16" stroke="black" stroke-width="0.10" stroke-opacity="0.10" />
<line x1="11.93" y1="9.58" x2="52.18" y2="57.24" stroke="black" stroke-width="0.10" stroke-opacity="0.10" />
<line x1="11.93" y1="9.58" x2="91.85" y2="95.91" stroke="black" stroke-width="0.10" stroke-opacity="0.10" />
<line x1="11.93" y1="9.58" x2="29.46" y2="78.14" stroke="black" stroke-width="0.10" stroke-opacity="0.10" />
<line x1="11.93" y1="9.58" x2="14.79" y2="31.69" stroke="black" stroke-width="0.10" stroke-opacity="0.10" />
<line x1="11.93" y1="9.58" x2="11.93" y2="9.58" stroke="black" stroke-width="0.10" stroke-opacity="0.10" />
<line x1="11.93" y1="9.58" x2="99.72" y2="68.47" stroke="black" stroke-width="0.10" stroke-opacity="0.10" />
<line x1="11.93" y1="9.58" x2="47.75" y2="16.25" stroke="black" stroke-width="0.10" stroke-opacity="0.10" />
<line x1="11.93" y1="9.58" x2="21.05" y2="57.37" stroke="black" stroke-width="0.10" stroke-opacity="0.10" />
<line x1="11.93" y1="9.58" x2="23.67" y2="79.16" stroke="black" stroke-width="0.10" stroke-opacity="0.10" />
<line x1="99.72" y1="68.47" x2="44.48" y2="77.54" stroke="black" stroke-width="0.10" stroke-opacity="0.10" />
<line x1="99.72" y1="68.47" x2="37.33" y2="33.12" stroke="black" stroke-width="0.10" stroke-opacity="0.10" />
<line x1="99.72" y1="68.47" x2="39.67" y2="69.77" stroke="black" stroke-width="0.10" stroke-opacity="0.10" />
<line x1="99.72" y1="68.47" x2="48.05" y2="58.45" stroke="black" stroke-width="0.10" stroke-opacity="0.10" />
<line x1="99.72" y1="68.47" x2="84.70" y2="23.97" stroke="black" stroke-width="0.10" stroke-opacity="0.10" />
<line x1="99.72" y1="68.47" x2="98.29" y2="22.19" stroke="black" stroke-width="0.10" stroke-opacity="0.10" />
<line x1="99.72" y1="68.47" x2="84.29" y2="17.24" stroke="black" stroke-width="0.10" stroke-opacity="0.10" />
<line x1="99.72" y1="68.47" x2="86.54" y2="57.48" stroke="black" stroke-width="3.00" stroke-opacity="1.00" />
<line x1="99.72" y1="68.47" x2="53.07" y2="4.74" stroke="black" stroke-width="0.10" stroke-opacity="0.10" />
<line x1="99.72" y1="68.47" x2="15.89" y2="32.23" stroke="black" stroke-width="0.10" stroke-opacity="0.10" />
<line x1="99.72" y1="68.47" x2="21.39" y2="61.16" stroke="black" stroke-width="0.10" stroke-opacity="0.10" />
<line x1="99.72" y1="68.47" x2="52.18" y2="57.24" stroke="black" stroke-width="0.10" stroke-opacity="0.10" />
<line x1="99.72" y1="68.47" x2="91.85" y2="95.91" stroke="black" stroke-width="0.10" stroke-opacity="0.10" />
<line x1="99.72" y1="68.47" x2="29.46" y2="78.14" stroke="black" stroke-width="0.10" stroke-opacity="0.10" />
<line x1="99.72" y1="68.47" x2="14.79" y2="31.69" stroke="black" stroke-width="0.10" stroke-opacity="0.10" />
<line x1="99.72" y1="68.47" x2="11.93" y2="9.58" stroke="black" stroke-width="0.10" stroke-opacity="0.10" />
<line x1="99.72" y1="68.47" x2="99.72" y2="68.47" stroke="black" stroke-width="0.10" stroke-opacity="0.10" />
<line x1="99.72" y1="68.47" x2="47.75" y2="16.25" stroke="black" stroke-width="0.10" stroke-opacity="0.10" />
<line x1="99.72" y1="68.47" x2="21.05" y2="57.37" stroke="black" stroke-width="0.10" stroke-opacity="0.10" />
<line x1="99.72" y1="68.47" x2="23.67" y2="79.16" stroke="black" stroke-width="0.10" stroke-opacity="0.10" />
<line x1="47.75" y1="16.25" x2="44.48" y2="77.54" stroke="black" stroke-width="0.10" stroke-opacity="0.10" />
<line x1="47.75" y1="16.25" x2="37.33" y2="33.12" stroke="black" stroke-width="0.10" stroke-opacity="0.10" />
<line x1="47.75" y1="16.25" x2="39.67" y2="69.77" stroke="black" stroke-width="0.10" stroke-opacity="0.10" />
<line x1="47.75" y1="16.25" x2="48.05" y2="58.45" stroke="black" stroke-width="0.10" stroke-opacity="0.10" />
<line x1="47.75" y1="16.25" x2="84.70" y2="23.97" stroke="black" stroke-width="0.10" stroke-opacity="0.10" />
<line x1="47.75" y1="16.25" x2="98.29" y2="22.19" stroke="black" stroke-width="0.10" stroke-opacity="0.10" />
<line x1="47.75" y1="16.25" x2="84.29" y2="17.24" stroke="black" stroke-width="0.10" stroke-opacity="0.10" />
<line x1="47.75" y1="16.25" x2="86.54" y2="57.48" stroke="black" stroke-width="0.10" stroke-opacity="0.10" />
<line x1="47.75" y1="16.25" x2="53.07" y2="4.74" stroke="black" stroke-width="2.94" stroke-opacity="0.98" />
<line x1="47.75" y1="16.25" x2="15.89" y2="32.23" stroke="black" stroke-width="0.10" stroke-opacity="0.10" />
<line x1="47.75" y1="16.25" x2="21.39" y2="61.16" stroke="black" stroke-width="0.10" stroke-opacity="0.10" />
<line x1="47.75" y1="16.25" x2="52.18" y2="57.24" stroke="black" stroke-width="0.10" stroke-opacity="0.10" />
<line x1="47.75" y1="16.25" x2="91.85" y2="95.91" stroke="black" stroke-width="0.10" stroke-opacity="0.10" />
<line x1="47.75" y1="16.25" x2="29.46" y2="78.14" stroke="black" stroke-width="0.10" stroke-opacity="0.10" />
<line x1="47.75" y1="16.25" x2="14.79" y2="31.69" stroke="black" stroke-width="0.10" stroke-opacity="0.10" />
<line x1="47.75" y1="16.25" x2="11.93" y2="9.58" stroke="black" stroke-width="0.10" stroke-opacity="0.10" />
<line x1="47.75" y1="16.25" x2="99.72" y2="68.47" stroke="black" stroke-width="0.10" stroke-opacity="0.10" />
<line x1="47.75" y1="16.25" x2="47.75" y2="16.25" stroke="black" stroke-width="0.10" stroke-opacity="0.10" />
<line x1="47.75" y1="16.25" x2="21.05" y2="57.37" stroke="black" stroke-width="0.10" stroke-opacity="0.10" />
<line x1="47.75" y1="16.25" x2="23.67" y2="79.16" stroke="black" stroke-width="0.10" stroke-opacity="0.10" />
<line x1="21.05" y1="57.37" x2="44.48" y2="77.54" stroke="black" stroke-width="0.10" stroke-opacity="0.10" />
<line x1="21.05" y1="57.37" x2="37.33" y2="33.12" stroke="black" stroke-width="0.10" stroke-opacity="0.10" />
<line x1="21.05" y1="57.37" x2="39.67" y2="69.77" stroke="black" stroke-width="0.10" stroke-opacity="0.10" />
<line x1="21.05" y1="57.37" x2="48.05" y2="58.45" stroke="black" stroke-width="0.10" stroke-opacity="0.10" />
<line x1="21.05" y1="57.37" x2="84.70" y2="23.97" stroke="black" stroke-width="0.10" stroke-opacity="0.10" />
<line x1="21.05" y1="57.37" x2="98.29" y2="22.19" stroke="black" stroke-width="0.10" stroke-opacity="0.10" />
<line x1="21.05" y1="57.37" x2="84.29" y2="17.24" stroke="black" stroke-width="0.10" stroke-opacity="0.10" />
<line x1="21.05" y1="57.37" x2="86.54" y2="57.48" stroke="black" stroke-width="0.10" stroke-opacity="0.10" />
<line x1="21.05" y1="57.37" x2="53.07" y2="4.74" stroke="black" stroke-width="0.10" stroke-opacity="0.10" />
<line x1="21.05" y1="57.37" x2="15.89" y2="32.23" stroke="black" stroke-width="0.10" stroke-opacity="0.10" />
<line x1="21.05" y1="57.37" x2="21.39" y2="61.16" stroke="black" stroke-width="0.10" stroke-opacity="0.10" />
<line x1="21.05" y1="57.37" x2="52.18" y2="57.24" stroke="black" stroke-width="0.10" stroke-opacity="0.10" />
<line x1="21.05" y1="57.37" x2="91.85" y2="95.91" stroke="black" stroke-width="2.79" stroke-opacity="0.94" />
<line x1="21.05" y1="57.37" x2="29.46" y2="78.14" stroke="black" stroke-width="0.10" stroke-opacity="0.10" />
<line x1="21.05" y1="57.37" x2="14.79" y2="31.69" stroke="black" stroke-width="0.10" stroke-opacity="0.10" />
<line x1="21.05" y1="57.37" x2="11.93" y2="9.58" stroke="black" stroke-width="0.10" stroke-opacity="0.10" />
<line x1="21.05" y1="57.37" x2="99.72" y2="68.47" stroke="black" stroke-width="0.10" stroke-opacity="0.10" />
<line x1="21.05" y1="57.37" x2="47.75" y2="16.25" stroke="black" stroke-width="0.10" stroke-opacity="0.10" />
<line x1="21.05" y1="57.37" x2="21.05" y2="57.37" stroke="black" stroke-width="0.10" stroke-opacity="0.10" />
<line x1="21.05" y1="57.37" x2="23.67" y2="79.16" stroke="black" stroke-width="0.10" stroke-opacity="0.10" />
<line x1="23.67" y1="79.16" x2="44.48" y2="77.54" stroke="black" stroke-width="0.10" stroke-opacity="0.10" />
<line x1="23.67" y1="79.16" x2="37.33" y2="33.12" stroke="black" stroke-width="0.10" stroke-opacity="0.10" />
<line x1="23.67" y1="79.16" x2="39.67" y2="69.77" stroke="black" stroke-width="0.10" stroke-opacity="0.10" />
<line x1="23.67" y1="79.16" x2="48.05" y2="58.45" stroke="black" stroke-width="0.10" stroke-opacity="0.10" />
<line x1="23.67" y1="79.16" x2="84.70" y2="23.97" stroke="black" stroke-width="0.10" stroke-opacity="0.10" />
<line x1="23.67" y1="79.16" x2="98.29" y2="22.19" stroke="black" stroke-width="0.10" stroke-opacity="0.10" />
<line x1="23.67" y1="79.16" x2="84.29" y2="17.24" stroke="black" stroke-width="0.10" stroke-opacity="0.10" />
<line x1="23.67" y1="79.16" x2="86.54" y2="57.48" stroke="black" stroke-width="0.10" stroke-opacity="0.10" />
<line x1="23.67" y1="79.16" x2="53.07" y2="4.74" stroke="black" stroke-width="0.10" stroke-opacity="0.10" />
<line x1="23.67" y1="79.16" x2="15.89" y2="32.23" stroke="black" stroke-width="0.10" stroke-opacity="0.10" />
<line x1="23.67" y1="79.16" x2="21.39" y2="61.16" stroke="black" stroke-width="0.10" stroke-opacity="0.10" />
<line x1="23.67" y1="79.16" x2="52.18" y2="57.24" stroke="black" stroke-width="0.10" stroke-opacity="0.10" />
<line x1="23.67" y1="79.16" x2="91.85" y2="95.91" stroke="black" stroke-width="0.10" stroke-opacity="0.10" />
<line x1="23.67" y1="79.16" x2="29.46" y2="78.14" stroke="black" stroke-width="2.99" stroke-opacity="1.00" />
<line x1="23.67" y1="79.16" x2="14.79" y2="31.69" stroke="black" stroke-width="0.10" stroke-opacity="0.10" />
<line x1="23.67" y1="79.16" x2="11.93" y2="9.58" stroke="black" stroke-width="0.10" stroke-opacity="0.10" />
<line x1="23.67" y1="79.16" x2="99.72" y2="68.47" stroke="black" stroke-width="0.10" stroke-opacity="0.10" />
<line x1="23.67" y1="79.16" x2="47.75" y2="16.25" stroke="black" stroke-width="0.10" stroke-opacity="0.10" />
<line x1="23.67" y1="79.16" x2="21.05" y2="57.37" stroke="black" stroke-width="0.10" stroke-opacity="0.10" />
<line x1="23.67" y1="79.16" x2="23.67" y2="79.16" stroke="black" stroke-width="0.10" stroke-opacity="0.10" />
</svg>
