<svg xmlns="http://www.w3.org/2000/svg" version="1.1" width="1000" height="800" viewBox="0 0 150 150">
<circle cx="15.61" cy="38.42" r="3" fill="blue" />
<circle cx="85.80" cy="78.79" r="3" fill="blue" />
<circle cx="96.49" cy="93.29" r="3" fill="blue" />
<circle cx="50.02" cy="57.12" r="3" fill="blue" />
<circle cx="27.74" cy="58.74" r="3" fill="blue" />
<circle cx="6.46" cy="37.65" r="3" fill="blue" />
<circle cx="14.80" cy="76.15" r="3" fill="blue" />
<circle cx="88.53" cy="71.72" r="3" fill="blue" />
<circle cx="45.57" cy="92.23" r="3" fill="blue" />
<circle cx="0.76" cy="26.54" r="3" fill="blue" />
<circle cx="81.93" cy="51.99" r="3" fill="blue" />
<circle cx="33.45" cy="7.87" r="3" fill="blue" />
<circle cx="95.85" cy="45.68" r="3" fill="blue" />
<circle cx="6.82" cy="35.02" r="3" fill="blue" />
<circle cx="57.34" cy="55.05" r="3" fill="blue" />
<circle cx="28.11" cy="85.69" r="3" fill="blue" />
<circle cx="69.36" cy="88.90" r="3" fill="blue" />
<circle cx="83.13" cy="75.64" r="3" fill="blue" />
<circle cx="3.93" cy="18.79" r="3" fill="blue" />
<circle cx="91.79" cy="37.38" r="3" fill="blue" />
<line x1="15.61" y1="38.42" x2="15.61" y2="38.42" stroke="black" stroke-width="0.10" stroke-opacity="0.10" />
<line x1="15.61" y1="38.42" x2="85.80" y2="78.79" stroke="black" stroke-width="0.10" stroke-opacity="0.10" />
<line x1="15.61" y1="38.42" x2="96.49" y2="93.29" stroke="black" stroke-width="0.10" stroke-opacity="0.10" />
<line x1="15.61" y1="38.42" x2="50.02" y2="57.12" stroke="black" stroke-width="0.10" stroke-opacity="0.10" />
<line x1="15.61" y1="38.42" x2="27.74" y2="58.74" stroke="black" stroke-width="0.10" stroke-opacity="0.10" />
<line x1="15.61" y1="38.42" x2="6.46" y2="37.65" stroke="black" stroke-width="0.10" stroke-opacity="0.10" />
<line x1="15.61" y1="38.42" x2="14.80" y2="76.15" stroke="black" stroke-width="0.10" stroke-opacity="0.10" />
<line x1="15.61" y1="38.42" x2="88.53" y2="71.72" stroke="black" stroke-width="0.10" stroke-opacity="0.10" />
<line x1="15.61" y1="38.42" x2="45.57" y2="92.23" stroke="black" stroke-width="0.10" stroke-opacity="0.10" />
<line x1="15.61" y1="38.42" x2="0.76" y2="26.54" stroke="black" stroke-width="0.10" stroke-opacity="0.10" />
<line x1="15.61" y1="38.42" x2="81.93" y2="51.99" stroke="black" stroke-width="0.10" stroke-opacity="0.10" />
<line x1="15.61" y1="38.42" x2="33.45" y2="7.87" stroke="black" stroke-width="0.10" stroke-opacity="0.10" />
<line x1="15.61" y1="38.42" x2="95.85" y2="45.68" stroke="black" stroke-width="0.10" stroke-opacity="0.10" />
<line x1="15.61" y1="38.42" x2="6.82" y2="35.02" stroke="black" stroke-width="2.88" stroke-opacity="0.96" />
<line x1="15.61" y1="38.42" x2="57.34" y2="55.05" stroke="black" stroke-width="0.10" stroke-opacity="0.10" />
<line x1="15.61" y1="38.42" x2="28.11" y2="85.69" stroke="black" stroke-width="0.10" stroke-opacity="0.10" />
<line x1="15.61" y1="38.42" x2="69.36" y2="88.90" stroke="black" stroke-width="0.10" stroke-opacity="0.10" />
<line x1="15.61" y1="38.42" x2="83.13" y2="75.64" stroke="black" stroke-width="0.10" stroke-opacity="0.10" />
<line x1="15.61" y1="38.42" x2="3.93" y2="18.79" stroke="black" stroke-width="0.10" stroke-opacity="0.10" />
<line x1="15.61" y1="38.42" x2="91.79" y2="37.38" stroke="black" stroke-width="0.10" stroke-opacity="0.10" />
<line x1="85.80" y1="78.79" x2="15.61" y2="38.42" stroke="black" stroke-width="0.10" stroke-opacity="0.10" />
<line x1="85.80" y1="78.79" x2="85.80" y2="78.79" stroke="black" stroke-width="0.10" stroke-opacity="0.10" />
<line x1="85.80" y1="78.79" x2="96.49" y2="93.29" stroke="black" stroke-width="3.00" stroke-opacity="1.00" />
<line x1="85.80" y1="78.79" x2="50.02" y2="57.12" stroke="black" stroke-width="0.10" stroke-opacity="0.10" />
<line x1="85.80" y1="78.79" x2="27.74" y2="58.74" stroke="black" stroke-width="0.10" stroke-opacity="0.10" />
<line x1="85.80" y1="78.79" x2="6.46" y2="37.65" stroke="black" stroke-width="0.10" stroke-opacity="0.10" />
<line x1="85.80" y1="78.79" x2="14.80" y2="76.15" stroke="black" stroke-width="0.10" stroke-opacity="0.10" />
<line x1="85.80" y1="78.79" x2="88.53" y2="71.72" stroke="black" stroke-width="0.10" stroke-opacity="0.10" />
<line x1="85.80" y1="78.79" x2="45.57" y2="92.23" stroke="black" stroke-width="0.10" stroke-opacity="0.10" />
<line x1="85.80" y1="78.79" x2="0.76" y2="26.54" stroke="black" stroke-width="0.10" stroke-opacity="0.10" />
<line x1="85.80" y1="78.79" x2="81.93" y2="51.99" stroke="black" stroke-width="0.10" stroke-opacity="0.10" />
<line x1="85.80" y1="78.79" x2="33.45" y2="7.87" stroke="black" stroke-width="0.10" stroke-opacity="0.10" />
<line x1="85.80" y1="78.79" x2="95.85" y2="45.68" stroke="black" stroke-width="0.10" stroke-opacity="0.10" />
<line x1="85.80" y1="78.79" x2="6.82" y2="35.02" stroke="black" stroke-width="0.10" stroke-opacity="0.10" />
<line x1="85.80" y1="78.79" x2="57.34" y2="55.05" stroke="black" stroke-width="0.10" stroke-opacity="0.10" />
<line x1="85.80" y1="78.79" x2="28.11" y2="85.69" stroke="black" stroke-width="0.10" stroke-opacity="0.10" />
<line x1="85.80" y1="78.79" x2="69.36" y2="88.90" stroke="black" stroke-width="0.10" stroke-opacity="0.10" />
<line x1="85.80" y1="78.79" x2="83.13" y2="75.64" stroke="black" stroke-width="0.10" stroke-opacity="0.10" />
<line x1="85.80" y1="78.79" x2="3.93" y2="18.79" stroke="black" stroke-width="0.10" stroke-opacity="0.10" />
<line x1="85.80" y1="78.79" x2="91.79" y2="37.38" stroke="black" stroke-width="0.10" stroke-opacity="0.10" />
<line x1="96.49" y1="93.29" x2="15.61" y2="38.42" stroke="black" stroke-width="0.10" stroke-opacity="0.10" />
<line x1="96.49" y1="93.29" x2="85.80" y2="78.79" stroke="black" stroke-width="0.10" stroke-opacity="0.10" />
<line x1="96.49" y1="93.29" x2="96.49" y2="93.29" stroke="black" stroke-width="0.10" stroke-opacity="0.10" />
<line x1="96.49" y1="93.29" x2="50.02" y2="57.12" stroke="black" stroke-width="0.10" stroke-opacity="0.10" />
<line x1="96.49" y1="93.29" x2="27.74" y2="58.74" stroke="black" stroke-width="0.10" stroke-opacity="0.10" />
<line x1="96.49" y1="93.29" x2="6.46" y2="37.65" stroke="black" stroke-width="0.10" stroke-opacity="0.10" />
<line x1="96.49" y1="93.29" x2="14.80" y2="76.15" stroke="black" stroke-width="0.10" stroke-opacity="0.10" />
<line x1="96.49" y1="93.29" x2="88.53" y2="71.72" stroke="black" stroke-width="0.10" stroke-opacity="0.10" />
<line x1="96.49" y1="93.29" x2="45.57" y2="92.23" stroke="black" stroke-width="0.10" stroke-opacity="0.10" />
<line x1="96.49" y1="93.29" x2="0.76" y2="26.54" stroke="black" stroke-width="0.10" stroke-opacity="0.10" />
<line x1="96.49" y1="93.29" x2="81.93" y2="51.99" stroke="black" stroke-width="0.10" stroke-opacity="0.10" />
<line x1="96.49" y1="93.29" x2="33.45" y2="7.87" stroke="black" stroke-width="0.10" stroke-opacity="0.10" />
<line x1="96.49" y1="93.29" x2="95.85" y2="45.68" stroke="black" stroke-width="0.10" stroke-opacity="0.10" />
<line x1="96.49" y1="93.29" x2="6.82" y2="35.02" stroke="black" stroke-width="0.10" stroke-opacity="0.10" />
<line x1="96.49" y1="93.29" x2="57.34" y2="55.05" stroke="black" stroke-width="0.10" stroke-opacity="0.10" />
<line x1="96.49" y1="93.29" x2="28.11" y2="85.69" stroke="black" stroke-width="0.10" stroke-opacity="0.10" />
<line x1="96.49" y1="93.29" x2="69.36" y2="88.90" stroke="black" stroke-width="2.88" stroke-opacity="0.96" />
<line x1="96.49" y1="93.29" x2="83.13" y2="75.64" stroke="black" stroke-width="0.10" stroke-opacity="0.10" />
<line x1="96.49" y1="93.29" x2="3.93" y2="18.79" stroke="black" stroke-width="0.10" stroke-opacity="0.10" />
<line x1="96.49" y1="93.29" x2="91.79" y2="37.38" stroke="black" stroke-width="0.10" stroke-opacity="0.10" />
<line x1="50.02" y1="57.12" x2="15.61" y2="38.42" stroke="black" stroke-width="0.10" stroke-opacity="0.10" />
<line x1="50.02" y1="57.12" x2="85.80" y2="78.79" stroke="black" stroke-width="0.10" stroke-opacity="0.10" />
<line x1="50.02" y1="57.12" x2="96.49" y2="93.29" stroke="black" stroke-width="0.10" stroke-opacity="0.10" />
<line x1="50.02" y1="57.12" x2="50.02" y2="57.12" stroke="black" stroke-width="0.10" stroke-opacity="0.10" />
<line x1="50.02" y1="57.12" x2="27.74" y2="58.74" stroke="black" stroke-width="0.10" stroke-opacity="0.10" />
<line x1="50.02" y1="57.12" x2="6.46" y2="37.65" stroke="black" stroke-width="0.10" stroke-opacity="0.10" />
<line x1="50.02" y1="57.12" x2="14.80" y2="76.15" stroke="black" stroke-width="0.10" stroke-opacity="0.10" />
<line x1="50.02" y1="57.12" x2="88.53" y2="71.72" stroke="black" stroke-width="0.10" stroke-opacity="0.10" />
<line x1="50.02" y1="57.12" x2="45.57" y2="92.23" stroke="black" stroke-width="0.10" stroke-opacity="0.10" />
<line x1="50.02" y1="57.12" x2="0.76" y2="26.54" stroke="black" stroke-width="0.10" stroke-opacity="0.10" />
<line x1="50.02" y1="57.12" x2="81.93" y2="51.99" stroke="black" stroke-width="0.10" stroke-opacity="0.10" />
<line x1="50.02" y1="57.12" x2="33.45" y2="7.87" stroke="black" stroke-width="0.10" stroke-opacity="0.10" />
<line x1="50.02" y1="57.12" x2="95.85" y2="45.68" stroke="black" stroke-width="0.10" stroke-opacity="0.10" />
<line x1="50.02" y1="57.12" x2="6.82" y2="35.02" stroke="black" stroke-width="0.10" stroke-opacity="0.10" />
<line x1="50.02" y1="57.12" x2="57.34" y2="55.05" stroke="black" stroke-width="2.64" stroke-opacity="0.89" />
<line x1="50.02" y1="57.12" x2="28.11" y2="85.69" stroke="black" stroke-width="0.10" stroke-opacity="0.10" />
<line x1="50.02" y1="57.12" x2="69.36" y2="88.90" stroke="black" stroke-width="0.10" stroke-opacity="0.10" />
<line x1="50.02" y1="57.12" x2="83.13" y2="75.64" stroke="black" stroke-width="0.10" stroke-opacity="0.10" />
<line x1="50.02" y1="57.12" x2="3.93" y2="18.79" stroke="black" stroke-width="0.10" stroke-opacity="0.10" />
<line x1="50.02" y1="57.12" x2="91.79" y2="37.38" stroke="black" stroke-width="0.10" stroke-opacity="0.10" />
<line x1="27.74" y1="58.74" x2="15.61" y2="38.42" stroke="black" stroke-width="2.82" stroke-opacity="0.94" />
<line x1="27.74" y1="58.74" x2="85.80" y2="78.79" stroke="black" stroke-width="0.10" stroke-opacity="0.10" />
<line x1="27.74" y1="58.74" x2="96.49" y2="93.29" stroke="black" stroke-width="0.10" stroke-opacity="0.10" />
<line x1="27.74" y1="58.74" x2="50.02" y2="57.12" stroke="black" stroke-width="0.10" stroke-opacity="0.10" />
<line x1="27.74" y1="58.74" x2="27.74" y2="58.74" stroke="black" stroke-width="0.10" stroke-opacity="0.10" />
<line x1="27.74" y1="58.74" x2="6.46" y2="37.65" stroke="black" stroke-width="0.10" stroke-opacity="0.10" />
<line x1="27.74" y1="58.74" x2="14.80" y2="76.15" stroke="black" stroke-width="0.10" stroke-opacity="0.10" />
<line x1="27.74" y1="58.74" x2="88.53" y2="71.72" stroke="black" stroke-width="0.10" stroke-opacity="0.10" />
<line x1="27.74" y1="58.74" x2="45.57" y2="92.23" stroke="black" stroke-width="0.10" stroke-opacity="0.10" />
<line x1="27.74" y1="58.74" x2="0.76" y2="26.54" stroke="black" stroke-width="0.10" stroke-opacity="0.10" />
<line x1="27.74" y1="58.74" x2="81.93" y2="51.99" stroke="black" stroke-width="0.10" stroke-opacity="0.10" />
<line x1="27.74" y1="58.74" x2="33.45" y2="7.87" stroke="black" stroke-width="0.10" stroke-opacity="0.10" />
<line x1="27.74" y1="58.74" x2="95.85" y2="45.68" stroke="black" stroke-width="0.10" stroke-opacity="0.10" />
<line x1="27.74" y1="58.74" x2="6.82" y2="35.02" stroke="black" stroke-width="0.10" stroke-opacity="0.10" />
<line x1="27.74" y1="58.74" x2="57.34" y2="55.05" stroke="black" stroke-width="0.10" stroke-opacity="0.10" />
<line x1="27.74" y1="58.74" x2="28.11" y2="85.69" stroke="black" stroke-width="0.10" stroke-opacity="0.10" />
<line x1="27.74" y1="58.74" x2="69.36" y2="88.90" stroke="black" stroke-width="0.10" stroke-opacity="0.10" />
<line x1="27.74" y1="58.74" x2="83.13" y2="75.64" stroke="black" stroke-width="0.10" stroke-opacity="0.10" />
<line x1="27.74" y1="58.74" x2="3.93" y2="18.79" stroke="black" stroke-width="0.10" stroke-opacity="0.10" />
<line x1="27.74" y1="58.74" x2="91.79" y2="37.38" stroke="black" stroke-width="0.10" stroke-opacity="0.10" />
<line x1="6.46" y1="37.65" x2="15.61" y2="38.42" stroke="black" stroke-width="0.10" stroke-opacity="0.10" />
<line x1="6.46" y1="37.65" x2="85.80" y2="78.79" stroke="black" stroke-width="0.10" stroke-opacity="0.10" />
<line x1="6.46" y1="37.65" x2="96.49" y2="93.29" stroke="black" stroke-width="0.10" stroke-opacity="0.10" />
<line x1="6.46" y1="37.65" x2="50.02" y2="57.12" stroke="black" stroke-width="0.10" stroke-opacity="0.10" />
<line x1="6.46" y1="37.65" x2="27.74" y2="58.74" stroke="black" stroke-width="0.10" stroke-opacity="0.10" />
<line x1="6.46" y1="37.65" x2="6.46" y2="37.65" stroke="black" stroke-width="0.10" stroke-opacity="0.10" />
<line x1="6.46" y1="37.65" x2="14.80" y2="76.15" stroke="black" stroke-width="0.10" stroke-opacity="0.10" />
<line x1="6.46" y1="37.65" x2="88.53" y2="71.72" stroke="black" stroke-width="0.10" stroke-opacity="0.10" />
<line x1="6.46" y1="37.65" x2="45.57" y2="92.23" stroke="black" stroke-width="0.10" stroke-opacity="0.10" />
<line x1="6.46" y1="37.65" x2="0.76" y2="26.54" stroke="black" stroke-width="2.92" stroke-opacity="0.98" />
<line x1="6.46" y1="37.65" x2="81.93" y2="51.99" stroke="black" stroke-width="0.10" stroke-opacity="0.10" />
<line x1="6.46" y1="37.65" x2="33.45" y2="7.87" stroke="black" stroke-width="0.10" stroke-opacity="0.10" />
<line x1="6.46" y1="37.65" x2="95.85" y2="45.68" stroke="black" stroke-width="0.10" stroke-opacity="0.10" />
<line x1="6.46" y1="37.65" x2="6.82" y2="35.02" stroke="black" stroke-width="0.10" stroke-opacity="0.10" />
<line x1="6.46" y1="37.65" x2="57.34" y2="55.05" stroke="black" stroke-width="0.10" stroke-opacity="0.10" />
<line x1="6.46" y1="37.65" x2="28.11" y2="85.69" stroke="black" stroke-width="0.10" stroke-opacity="0.10" />
<line x1="6.46" y1="37.65" x2="69.36" y2="88.90" stroke="black" stroke-width="0.10" stroke-opacity="0.10" />
<line x1="6.46" y1="37.65" x2="83.13" y2="75.64" stroke="black" stroke-width="0.10" stroke-opacity="0.10" />
<line x1="6.46" y1="37.65" x2="3.93" y2="18.79" stroke="black" stroke-width="0.10" stroke-opacity="0.10" />
<line x1="6.46" y1="37.65" x2="91.79" y2="37.38" stroke="black" stroke-width="0.10" stroke-opacity="0.10" />
<line x1="14.80" y1="76.15" x2="15.61" y2="38.42" stroke="black" stroke-width="0.10" stroke-opacity="0.10" />
<line x1="14.80" y1="76.15" x2="85.80" y2="78.79" stroke="black" stroke-width="0.10" stroke-opacity="0.10" />
<line x1="14.80" y1="76.15" x2="96.49" y2="93.29" stroke="black" stroke-width="0.10" stroke-opacity="0.10" />
<line x1="14.80" y1="76.15" x2="50.02" y2="57.12" stroke="black" stroke-width="0.10" stroke-opacity="0.10" />
<line x1="14.80" y1="76.15" x2="27.74" y2="58.74" stroke="black" stroke-width="2.78" stroke-opacity="0.93" />
<line x1="14.80" y1="76.15" x2="6.46" y2="37.65" stroke="black" stroke-width="0.10" stroke-opacity="0.10" />
<line x1="14.80" y1="76.15" x2="14.80" y2="76.15" stroke="black" stroke-width="0.10" stroke-opacity="0.10" />
<line x1="14.80" y1="76.15" x2="88.53" y2="71.72" stroke="black" stroke-width="0.10" stroke-opacity="0.10" />
<line x1="14.80" y1="76.15" x2="45.57" y2="92.23" stroke="black" stroke-width="0.10" stroke-opacity="0.10" />
<line x1="14.80" y1="76.15" x2="0.76" y2="26.54" stroke="black" stroke-width="0.10" stroke-opacity="0.10" />
<line x1="14.80" y1="76.15" x2="81.93" y2="51.99" stroke="black" stroke-width="0.10" stroke-opacity="0.10" />
<line x1="14.80" y1="76.15" x2="33.45" y2="7.87" stroke="black" stroke-width="0.10" stroke-opacity="0.10" />
<line x1="14.80" y1="76.15" x2="95.85" y2="45.68" stroke="black" stroke-width="0.10" stroke-opacity="0.10" />
<line x1="14.80" y1="76.15" x2="6.82" y2="35.02" stroke="black" stroke-width="0.10" stroke-opacity="0.10" />
<line x1="14.80" y1="76.15" x2="57.34" y2="55.05" stroke="black" stroke-width="0.10" stroke-opacity="0.10" />
<line x1="14.80" y1="76.15" x2="28.11" y2="85.69" stroke="black" stroke-width="0.10" stroke-opacity="0.10" />
<line x1="14.80" y1="76.15" x2="69.36" y2="88.90" stroke="black" stroke-width="0.10" stroke-opacity="0.10" />
<line x1="14.80" y1="76.15" x2="83.13" y2="75.64" stroke="black" stroke-width="0.10" stroke-opacity="0.10" />
<line x1="14.80" y1="76.15" x2="3.93" y2="18.79" stroke="black" stroke-width="0.10" stroke-opacity="0.10" />
<line x1="14.80" y1="76.15" x2="91.79" y2="37.38" stroke="black" stroke-width="0.10" stroke-opacity="0.10" />
<line x1="88.53" y1="71.72" x2="15.61" y2="38.42" stroke="black" stroke-width="0.10" stroke-opacity="0.10" />
<line x1="88.53" y1="71.72" x2="85.80" y2="78.79" stroke="black" stroke-width="0.10" stroke-opacity="0.10" />
<line x1="88.53" y1="71.72" x2="96.49" y2="93.29" stroke="black" stroke-width="0.10" stroke-opacity="0.10" />
<line x1="88.53" y1="71.72" x2="50.02" y2="57.12" stroke="black" stroke-width="0.10" stroke-opacity="0.10" />
<line x1="88.53" y1="71.72" x2="27.74" y2="58.74" stroke="black" stroke-width="0.10" stroke-opacity="0.10" />
<line x1="88.53" y1="71.72" x2="6.46" y2="37.65" stroke="black" stroke-width="0.10" stroke-opacity="0.10" />
<line x1="88.53" y1="71.72" x2="14.80" y2="76.15" stroke="black" stroke-width="0.10" stroke-opacity="0.10" />
<line x1="88.53" y1="71.72" x2="88.53" y2="71.72" stroke="black" stroke-width="0.10" stroke-opacity="0.10" />
<line x1="88.53" y1="71.72" x2="45.57" y2="92.23" stroke="black" stroke-width="0.10" stroke-opacity="0.10" />
<line x1="88.53" y1="71.72" x2="0.76" y2="26.54" stroke="black" stroke-width="0.10" stroke-opacity="0.10" />
<line x1="88.53" y1="71.72" x2="81.93" y2="51.99" stroke="black" stroke-width="0.10" stroke-opacity="0.10" />
<line x1="88.53" y1="71.72" x2="33.45" y2="7.87" stroke="black" stroke-width="0.10" stroke-opacity="0.10" />
<line x1="88.53" y1="71.72" x2="95.85" y2="45.68" stroke="black" stroke-width="0.10" stroke-opacity="0.10" />
<line x1="88.53" y1="71.72" x2="6.82" y2="35.02" stroke="black" stroke-width="0.10" stroke-opacity="0.10" />
<line x1="88.53" y1="71.72" x2="57.34" y2="55.05" stroke="black" stroke-width="0.10" stroke-opacity="0.10" />
<line x1="88.53" y1="71.72" x2="28.11" y2="85.69" stroke="black" stroke-width="0.10" stroke-opacity="0.10" />
<line x1="88.53" y1="71.72" x2="69.36" y2="88.90" stroke="black" stroke-width="0.10" stroke-opacity="0.10" />
<line x1="88.53" y1="71.72" x2="83.13" y2="75.64" stroke="black" stroke-width="2.93" stroke-opacity="0.98" />
<line x1="88.53" y1="71.72" x2="3.93" y2="18.79" stroke="black" stroke-width="0.10" stroke-opacity="0.10" />
<line x1="88.53" y1="71.72" x2="91.79" y2="37.38" stroke="black" stroke-width="0.10" stroke-opacity="0.10" />
<line x1="45.57" y1="92.23" x2="15.61" y2="38.42" stroke="black" stroke-width="0.10" stroke-opacity="0.10" />
<line x1="45.57" y1="92.23" x2="85.80" y2="78.79" stroke="black" stroke-width="0.10" stroke-opacity="0.10" />
<line x1="45.57" y1="92.23" x2="96.49" y2="93.29" stroke="black" stroke-width="0.10" stroke-opacity="0.10" />
<line x1="45.57" y1="92.23" x2="50.02" y2="57.12" stroke="black" stroke-width="0.10" stroke-opacity="0.10" />
<line x1="45.57" y1="92.23" x2="27.74" y2="58.74" stroke="black" stroke-width="0.10" stroke-opacity="0.10" />
<line x1="45.57" y1="92.23" x2="6.46" y2="37.65" stroke="black" stroke-width="0.10" stroke-opacity="0.10" />
<line x1="45.57" y1="92.23" x2="14.80" y2="76.15" stroke="black" stroke-width="0.10" stroke-opacity="0.10" />
<line x1="45.57" y1="92.23" x2="88.53" y2="71.72" stroke="black" stroke-width="0.10" stroke-opacity="0.10" />
<line x1="45.57" y1="92.23" x2="45.57" y2="92.23" stroke="black" stroke-width="0.10" stroke-opacity="0.10" />
<line x1="45.57" y1="92.23" x2="0.76" y2="26.54" stroke="black" stroke-width="0.10" stroke-opacity="0.10" />
<line x1="45.57" y1="92.23" x2="81.93" y2="51.99" stroke="black" stroke-width="0.10" stroke-opacity="0.10" />
<line x1="45.57" y1="92.23" x2="33.45" y2="7.87" stroke="black" stroke-width="0.10" stroke-opacity="0.10" />
<line x1="45.57" y1="92.23" x2="95.85" y2="45.68" stroke="black" stroke-width="0.10" stroke-opacity="0.10" />
<line x1="45.57" y1="92.23" x2="6.82" y2="35.02" stroke="black" stroke-width="0.10" stroke-opacity="0.10" />
<line x1="45.57" y1="92.23" x2="57.34" y2="55.05" stroke="black" stroke-width="0.10" stroke-opacity="0.10" />
<line x1="45.57" y1="92.23" x2="28.11" y2="85.69" stroke="black" stroke-width="2.91" stroke-opacity="0.97" />
<line x1="45.57" y1="92.23" x2="69.36" y2="88.90" stroke="black" stroke-width="0.10" stroke-opacity="0.10" />
<line x1="45.57" y1="92.23" x2="83.13" y2="75.64" stroke="black" stroke-width="0.10" stroke-opacity="0.10" />
<line x1="45.57" y1="92.23" x2="3.93" y2="18.79" stroke="black" stroke-width="0.10" stroke-opacity="0.10" />
<line x1="45.57" y1="92.23" x2="91.79" y2="37.38" stroke="black" stroke-width="0.10" stroke-opacity="0.10" />
<line x1="0.76" y1="26.54" x2="15.61" y2="38.42" stroke="black" stroke-width="0.10" stroke-opacity="0.10" />
<line x1="0.76" y1="26.54" x2="85.80" y2="78.79" stroke="black" stroke-width="0.10" stroke-opacity="0.10" />
<line x1="0.76" y1="26.54" x2="96.49" y2="93.29" stroke="black" stroke-width="0.10" stroke-opacity="0.10" />
<line x1="0.76" y1="26.54" x2="50.02" y2="57.12" stroke="black" stroke-width="0.10" stroke-opacity="0.10" />
<line x1="0.76" y1="26.54" x2="27.74" y2="58.74" stroke="black" stroke-width="0.10" stroke-opacity="0.10" />
<line x1="0.76" y1="26.54" x2="6.46" y2="37.65" stroke="black" stroke-width="0.10" stroke-opacity="0.10" />
<line x1="0.76" y1="26.54" x2="14.80" y2="76.15" stroke="black" stroke-width="0.10" stroke-opacity="0.10" />
<line x1="0.76" y1="26.54" x2="88.53" y2="71.72" stroke="black" stroke-width="0.10" stroke-opacity="0.10" />
<line x1="0.76" y1="26.54" x2="45.57" y2="92.23" stroke="black" stroke-width="0.10" stroke-opacity="0.10" />
<line x1="0.76" y1="26.54" x2="0.76" y2="26.54" stroke="black" stroke-width="0.10" stroke-opacity="0.10" />
<line x1="0.76" y1="26.54" x2="81.93" y2="51.99" stroke="black" stroke-width="0.10" stroke-opacity="0.10" />
<line x1="0.76" y1="26.54" x2="33.45" y2="7.87" stroke="black" stroke-width="0.10" stroke-opacity="0.10" />
<line x1="0.76" y1="26.54" x2="95.85" y2="45.68" stroke="black" stroke-width="0.10" stroke-opacity="0.10" />
<line x1="0.76" y1="26.54" x2="6.82" y2="35.02" stroke="black" stroke-width="0.10" stroke-opacity="0.10" />
<line x1="0.76" y1="26.54" x2="57.34" y2="55.05" stroke="black" stroke-width="0.10" stroke-opacity="0.10" />
<line x1="0.76" y1="26.54" x2="28.11" y2="85.69" stroke="black" stroke-width="0.10" stroke-opacity="0.10" />
<line x1="0.76" y1="26.54" x2="69.36" y2="88.90" stroke="black" stroke-width="0.10" stroke-opacity="0.10" />
<line x1="0.76" y1="26.54" x2="83.13" y2="75.64" stroke="black" stroke-width="0.10" stroke-opacity="0.10" />
<line x1="0.76" y1="26.54" x2="3.93" y2="18.79" stroke="black" stroke-width="2.87" stroke-opacity="0.96" />
<line x1="0.76" y1="26.54" x2="91.79" y2="37.38" stroke="black" stroke-width="0.10" stroke-opacity="0.10" />
<line x1="81.93" y1="51.99" x2="15.61" y2="38.42" stroke="black" stroke-width="0.10" stroke-opacity="0.10" />
<line x1="81.93" y1="51.99" x2="85.80" y2="78.79" stroke="black" stroke-width="0.10" stroke-opacity="0.10" />
<line x1="81.93" y1="51.99" x2="96.49" y2="93.29" stroke="black" stroke-width="0.10" stroke-opacity="0.10" />
<line x1="81.93" y1="51.99" x2="50.02" y2="57.12" stroke="black" stroke-width="0.10" stroke-opacity="0.10" />
<line x1="81.93" y1="51.99" x2="27.74" y2="58.74" stroke="black" stroke-width="0.10" stroke-opacity="0.10" />
<line x1="81.93" y1="51.99" x2="6.46" y2="37.65" stroke="black" stroke-width="0.10" stroke-opacity="0.10" />
<line x1="81.93" y1="51.99" x2="14.80" y2="76.15" stroke="black" stroke-width="0.10" stroke-opacity="0.10" />
<line x1="81.93" y1="51.99" x2="88.53" y2="71.72" stroke="black" stroke-width="0.10" stroke-opacity="0.10" />
<line x1="81.93" y1="51.99" x2="45.57" y2="92.23" stroke="black" stroke-width="0.10" stroke-opacity="0.10" />
<line x1="81.93" y1="51.99" x2="0.76" y2="26.54" stroke="black" stroke-width="0.10" stroke-opacity="0.10" />
<line x1="81.93" y1="51.99" x2="81.93" y2="51.99" stroke="black" stroke-width="0.10" stroke-opacity="0.10" />
<line x1="81.93" y1="51.99" x2="33.45" y2="7.87" stroke="black" stroke-width="0.10" stroke-opacity="0.10" />
<line x1="81.93" y1="51.99" x2="95.85" y2="45.68" stroke="black" stroke-width="2.82" stroke-opacity="0.94" />
<line x1="81.93" y1="51.99" x2="6.82" y2="35.02" stroke="black" stroke-width="0.10" stroke-opacity="0.10" />
<line x1="81.93" y1="51.99" x2="57.34" y2="55.05" stroke="black" stroke-width="0.10" stroke-opacity="0.10" />
<line x1="81.93" y1="51.99" x2="28.11" y2="85.69" stroke="black" stroke-width="0.10" stroke-opacity="0.10" />
<line x1="81.93" y1="51.99" x2="69.36" y2="88.90" stroke="black" stroke-width="0.10" stroke-opacity="0.10" />
<line x1="81.93" y1="51.99" x2="83.13" y2="75.64" stroke="black" stroke-width="0.10" stroke-opacity="0.10" />
<line x1="81.93" y1="51.99" x2="3.93" y2="18.79" stroke="black" stroke-width="0.10" stroke-opacity="0.10" />
<line x1="81.93" y1="51.99" x2="91.79" y2="37.38" stroke="black" stroke-width="0.10" stroke-opacity="0.10" />
<line x1="33.45" y1="7.87" x2="15.61" y2="38.42" stroke="black" stroke-width="0.10" stroke-opacity="0.10" />
<line x1="33.45" y1="7.87" x2="85.80" y2="78.79" stroke="black" stroke-width="0.10" stroke-opacity="0.10" />
<line x1="33.45" y1="7.87" x2="96.49" y2="93.29" stroke="black" stroke-width="0.10" stroke-opacity="0.10" />
<line x1="33.45" y1="7.87" x2="50.02" y2="57.12" stroke="black" stroke-width="2.90" stroke-opacity="0.97" />
<line x1="33.45" y1="7.87" x2="27.74" y2="58.74" stroke="black" stroke-width="0.10" stroke-opacity="0.10" />
<line x1="33.45" y1="7.87" x2="6.46" y2="37.65" stroke="black" stroke-width="0.10" stroke-opacity="0.10" />
<line x1="33.45" y1="7.87" x2="14.80" y2="76.15" stroke="black" stroke-width="0.10" stroke-opacity="0.10" />
<line x1="33.45" y1="7.87" x2="88.53" y2="71.72" stroke="black" stroke-width="0.10" stroke-opacity="0.10" />
<line x1="33.45" y1="7.87" x2="45.57" y2="92.23" stroke="black" stroke-width="0.10" stroke-opacity="0.10" />
<line x1="33.45" y1="7.87" x2="0.76" y2="26.54" stroke="black" stroke-width="0.10" stroke-opacity="0.10" />
<line x1="33.45" y1="7.87" x2="81.93" y2="51.99" stroke="black" stroke-width="0.10" stroke-opacity="0.10" />
<line x1="33.45" y1="7.87" x2="33.45" y2="7.87" stroke="black" stroke-width="0.10" stroke-opacity="0.10" />
<line x1="33.45" y1="7.87" x2="95.85" y2="45.68" stroke="black" stroke-width="0.10" stroke-opacity="0.10" />
<line x1="33.45" y1="7.87" x2="6.82" y2="35.02" stroke="black" stroke-width="0.10" stroke-opacity="0.10" />
<line x1="33.45" y1="7.87" x2="57.34" y2="55.05" stroke="black" stroke-width="0.10" stroke-opacity="0.10" />
<line x1="33.45" y1="7.87" x2="28.11" y2="85.69" stroke="black" stroke-width="0.10" stroke-opacity="0.10" />
<line x1="33.45" y1="7.87" x2="69.36" y2="88.90" stroke="black" stroke-width="0.10" stroke-opacity="0.10" />
<line x1="33.45" y1="7.87" x2="83.13" y2="75.64" stroke="black" stroke-width="0.10" stroke-opacity="0.10" />
<line x1="33.45" y1="7.87" x2="3.93" y2="18.79" stroke="black" stroke-width="0.10" stroke-opacity="0.10" />
<line x1="33.45" y1="7.87" x2="91.79" y2="37.38" stroke="black" stroke-width="0.10" stroke-opacity="0.10" />
<line x1="95.85" y1="45.68" x2="15.61" y2="38.42" stroke="black" stroke-width="0.10" stroke-opacity="0.10" />
<line x1="95.85" y1="45.68" x2="85.80" y2="78.79" stroke="black" stroke-width="0.10" stroke-opacity="0.10" />
<line x1="95.85" y1="45.68" x2="96.49" y2="93.29" stroke="black" stroke-width="0.10" stroke-opacity="0.10" />
<line x1="95.85" y1="45.68" x2="50.02" y2="57.12" stroke="black" stroke-width="0.10" stroke-opacity="0.10" />
<line x1="95.85" y1="45.68" x2="27.74" y2="58.74" stroke="black" stroke-width="0.10" stroke-opacity="0.10" />
<line x1="95.85" y1="45.68" x2="6.46" y2="37.65" stroke="black" stroke-width="0.10" stroke-opacity="0.10" />
<line x1="95.85" y1="45.68" x2="14.80" y2="76.15" stroke="black" stroke-width="0.10" stroke-opacity="0.10" />
<line x1="95.85" y1="45.68" x2="88.53" y2="71.72" stroke="black" stroke-width="0.10" stroke-opacity="0.10" />
<line x1="95.85" y1="45.68" x2="45.57" y2="92.23" stroke="black" stroke-width="0.10" stroke-opacity="0.10" />
<line x1="95.85" y1="45.68" x2="0.76" y2="26.54" stroke="black" stroke-width="0.10" stroke-opacity="0.10" />
<line x1="95.85" y1="45.68" x2="81.93" y2="51.99" stroke="black" stroke-width="0.10" stroke-opacity="0.10" />
<line x1="95.85" y1="45.68" x2="33.45" y2="7.87" stroke="black" stroke-width="0.10" stroke-opacity="0.10" />
<line x1="95.85" y1="45.68" x2="95.85" y2="45.68" stroke="black" stroke-width="0.10" stroke-opacity="0.10" />
<line x1="95.85" y1="45.68" x2="6.82" y2="35.02" stroke="black" stroke-width="0.10" stroke-opacity="0.10" />
<line x1="95.85" y1="45.68" x2="57.34" y2="55.05" stroke="black" stroke-width="0.10" stroke-opacity="0.10" />
<line x1="95.85" y1="45.68" x2="28.11" y2="85.69" stroke="black" stroke-width="0.10" stroke-opacity="0.10" />
<line x1="95.85" y1="45.68" x2="69.36" y2="88.90" stroke="black" stroke-width="0.10" stroke-opacity="0.10" />
<line x1="95.85" y1="45.68" x2="83.13" y2="75.64" stroke="black" stroke-width="0.10" stroke-opacity="0.10" />
<line x1="95.85" y1="45.68" x2="3.93" y2="18.79" stroke="black" stroke-width="0.10" stroke-opacity="0.10" />
<line x1="95.85" y1="45.68" x2="91.79" y2="37.38" stroke="black" stroke-width="2.78" stroke-opacity="0.93" />
<line x1="6.82" y1="35.02" x2="15.61" y2="38.42" stroke="black" stroke-width="0.10" stroke-opacity="0.10" />
<line x1="6.82" y1="35.02" x2="85.80" y2="78.79" stroke="black" stroke-width="0.10" stroke-opacity="0.10" />
<line x1="6.82" y1="35.02" x2="96.49" y2="93.29" stroke="black" stroke-width="0.10" stroke-opacity="0.10" />
<line x1="6.82" y1="35.02" x2="50.02" y2="57.12" stroke="black" stroke-width="0.10" stroke-opacity="0.10" />
<line x1="6.82" y1="35.02" x2="27.74" y2="58.74" stroke="black" stroke-width="0.10" stroke-opacity="0.10" />
<line x1="6.82" y1="35.02" x2="6.46" y2="37.65" stroke="black" stroke-width="2.84" stroke-opacity="0.95" />
<line x1="6.82" y1="35.02" x2="14.80" y2="76.15" stroke="black" stroke-width="0.10" stroke-opacity="0.10" />
<line x1="6.82" y1="35.02" x2="88.53" y2="71.72" stroke="black" stroke-width="0.10" stroke-opacity="0.10" />
<line x1="6.82" y1="35.02" x2="45.57" y2="92.23" stroke="black" stroke-width="0.10" stroke-opacity="0.10" />
<line x1="6.82" y1="35.02" x2="0.76" y2="26.54" stroke="black" stroke-width="0.10" stroke-opacity="0.10" />
<line x1="6.82" y1="35.02" x2="81.93" y2="51.99" stroke="black" stroke-width="0.10" stroke-opacity="0.10" />
<line x1="6.82" y1="35.02" x2="33.45" y2="7.87" stroke="black" stroke-width="0.10" stroke-opacity="0.10" />
<line x1="6.82" y1="35.02" x2="95.85" y2="45.68" stroke="black" stroke-width="0.10" stroke-opacity="0.10" />
<line x1="6.82" y1="35.02" x2="6.82" y2="35.02" stroke="black" stroke-width="0.10" stroke-opacity="0.10" />
<line x1="6.82" y1="35.02" x2="57.34" y2="55.05" stroke="black" stroke-width="0.10" stroke-opacity="0.10" />
<line x1="6.82" y1="35.02" x2="28.11" y2="85.69" stroke="black" stroke-width="0.10" stroke-opacity="0.10" />
<line x1="6.82" y1="35.02" x2="69.36" y2="88.90" stroke="black" stroke-width="0.10" stroke-opacity="0.10" />
<line x1="6.82" y1="35.02" x2="83.13" y2="75.64" stroke="black" stroke-width="0.10" stroke-opacity="0.10" />
<line x1="6.82" y1="35.02" x2="3.93" y2="18.79" stroke="black" stroke-width="0.10" stroke-opacity="0.10" />
<line x1="6.82" y1="35.02" x2="91.79" y2="37.38" stroke="black" stroke-width="0.10" stroke-opacity="0.10" />
<line x1="57.34" y1="55.05" x2="15.61" y2="38.42" stroke="black" stroke-width="0.10" stroke-opacity="0.10" />
<line x1="57.34" y1="55.05" x2="85.80" y2="78.79" stroke="black" stroke-width="0.10" stroke-opacity="0.10" />
<line x1="57.34" y1="55.05" x2="96.49" y2="93.29" stroke="black" stroke-width="0.10" stroke-opacity="0.10" />
<line x1="57.34" y1="55.05" x2="50.02" y2="57.12" stroke="black" stroke-width="0.10" stroke-opacity="0.10" />
<line x1="57.34" y1="55.05" x2="27.74" y2="58.74" stroke="black" stroke-width="0.10" stroke-opacity="0.10" />
<line x1="57.34" y1="55.05" x2="6.46" y2="37.65" stroke="black" stroke-width="0.10" stroke-opacity="0.10" />
<line x1="57.34" y1="55.05" x2="14.80" y2="76.15" stroke="black" stroke-width="0.10" stroke-opacity="0.10" />
<line x1="57.34" y1="55.05" x2="88.53" y2="71.72" stroke="black" stroke-width="0.10" stroke-opacity="0.10" />
<line x1="57.34" y1="55.05" x2="45.57" y2="92.23" stroke="black" stroke-width="0.10" stroke-opacity="0.10" />
<line x1="57.34" y1="55.05" x2="0.76" y2="26.54" stroke="black" stroke-width="0.10" stroke-opacity="0.10" />
<line x1="57.34" y1="55.05" x2="81.93" y2="51.99" stroke="black" stroke-width="2.97" stroke-opacity="0.99" />
<line x1="57.34" y1="55.05" x2="33.45" y2="7.87" stroke="black" stroke-width="0.10" stroke-opacity="0.10" />
<line x1="57.34" y1="55.05" x2="95.85" y2="45.68" stroke="black" stroke-width="0.10" stroke-opacity="0.10" />
<line x1="57.34" y1="55.05" x2="6.82" y2="35.02" stroke="black" stroke-width="0.10" stroke-opacity="0.10" />
<line x1="57.34" y1="55.05" x2="57.34" y2="55.05" stroke="black" stroke-width="0.10" stroke-opacity="0.10" />
<line x1="57.34" y1="55.05" x2="28.11" y2="85.69" stroke="black" stroke-width="0.10" stroke-opacity="0.10" />
<line x1="57.34" y1="55.05" x2="69.36" y2="88.90" stroke="black" stroke-width="0.10" stroke-opacity="0.10" />
<line x1="57.34" y1="55.05" x2="83.13" y2="75.64" stroke="black" stroke-width="0.10" stroke-opacity="0.10" />
<line x1="57.34" y1="55.05" x2="3.93" y2="18.79" stroke="black" stroke-width="0.10" stroke-opacity="0.10" />
<line x1="57.34" y1="55.05" x2="91.79" y2="37.38" stroke="black" stroke-width="0.10" stroke-opacity="0.10" />
<line x1="28.11" y1="85.69" x2="15.61" y2="38.42" stroke="black" stroke-width="0.10" stroke-opacity="0.10" />
<line x1="28.11" y1="85.69" x2="85.80" y2="78.79" stroke="black" stroke-width="0.10" stroke-opacity="0.10" />
<line x1="28.11" y1="85.69" x2="96.49" y2="93.29" stroke="black" stroke-width="0.10" stroke-opacity="0.10" />
<line x1="28.11" y1="85.69" x2="50.02" y2="57.12" stroke="black" stroke-width="0.10" stroke-opacity="0.10" />
<line x1="28.11" y1="85.69" x2="27.74" y2="58.74" stroke="black" stroke-width="0.10" stroke-opacity="0.10" />
<line x1="28.11" y1="85.69" x2="6.46" y2="37.65" stroke="black" stroke-width="0.10" stroke-opacity="0.10" />
<line x1="28.11" y1="85.69" x2="14.80" y2="76.15" stroke="black" stroke-width="2.79" stroke-opacity="0.94" />
<line x1="28.11" y1="85.69" x2="88.53" y2="71.72" stroke="black" stroke-width="0.10" stroke-opacity="0.10" />
<line x1="28.11" y1="85.69" x2="45.57" y2="92.23" stroke="black" stroke-width="0.10" stroke-opacity="0.10" />
<line x1="28.11" y1="85.69" x2="0.76" y2="26.54" stroke="black" stroke-width="0.10" stroke-opacity="0.10" />
<line x1="28.11" y1="85.69" x2="81.93" y2="51.99" stroke="black" stroke-width="0.10" stroke-opacity="0.10" />
<line x1="28.11" y1="85.69" x2="33.45" y2="7.87" stroke="black" stroke-width="0.10" stroke-opacity="0.10" />
<line x1="28.11" y1="85.69" x2="95.85" y2="45.68" stroke="black" stroke-width="0.10" stroke-opacity="0.10" />
<line x1="28.11" y1="85.69" x2="6.82" y2="35.02" stroke="black" stroke-width="0.10" stroke-opacity="0.10" />
<line x1="28.11" y1="85.69" x2="57.34" y2="55.05" stroke="black" stroke-width="0.10" stroke-opacity="0.10" />
<line x1="28.11" y1="85.69" x2="28.11" y2="85.69" stroke="black" stroke-width="0.10" stroke-opacity="0.10" />
<line x1="28.11" y1="85.69" x2="69.36" y2="88.90" stroke="black" stroke-width="0.10" stroke-opacity="0.10" />
<line x1="28.11" y1="85.69" x2="83.13" y2="75.64" stroke="black" stroke-width="0.10" stroke-opacity="0.10" />
<line x1="28.11" y1="85.69" x2="3.93" y2="18.79" stroke="black" stroke-width="0.10" stroke-opacity="0.10" />
<line x1="28.11" y1="85.69" x2="91.79" y2="37.38" stroke="black" stroke-width="0.10" stroke-opacity="0.10" />
<line x1="69.36" y1="88.90" x2="15.61" y2="38.42" stroke="black" stroke-width="0.10" stroke-opacity="0.10" />
<line x1="69.36" y1="88.90" x2="85.80" y2="78.79" stroke="black" stroke-width="0.10" stroke-opacity="0.10" />
<line x1="69.36" y1="88.90" x2="96.49" y2="93.29" stroke="black" stroke-width="0.10" stroke-opacity="0.10" />
<line x1="69.36" y1="88.90" x2="50.02" y2="57.12" stroke="black" stroke-width="0.10" stroke-opacity="0.10" />
<line x1="69.36" y1="88.90" x2="27.74" y2="58.74" stroke="black" stroke-width="0.10" stroke-opacity="0.10" />
<line x1="69.36" y1="88.90" x2="6.46" y2="37.65" stroke="black" stroke-width="0.10" stroke-opacity="0.10" />
<line x1="69.36" y1="88.90" x2="14.80" y2="76.15" stroke="black" stroke-width="0.10" stroke-opacity="0.10" />
<line x1="69.36" y1="88.90" x2="88.53" y2="71.72" stroke="black" stroke-width="0.10" stroke-opacity="0.10" />
<line x1="69.36" y1="88.90" x2="45.57" y2="92.23" stroke="black" stroke-width="2.89" stroke-opacity="0.96" />
<line x1="69.36" y1="88.90" x2="0.76" y2="26.54" stroke="black" stroke-width="0.10" stroke-opacity="0.10" />
<line x1="69.36" y1="88.90" x2="81.93" y2="51.99" stroke="black" stroke-width="0.10" stroke-opacity="0.10" />
<line x1="69.36" y1="88.90" x2="33.45" y2="7.87" stroke="black" stroke-width="0.10" stroke-opacity="0.10" />
<line x1="69.36" y1="88.90" x2="95.85" y2="45.68" stroke="black" stroke-width="0.10" stroke-opacity="0.10" />
<line x1="69.36" y1="88.90" x2="6.82" y2="35.02" stroke="black" stroke-width="0.10" stroke-opacity="0.10" />
<line x1="69.36" y1="88.90" x2="57.34" y2="55.05" stroke="black" stroke-width="0.10" stroke-opacity="0.10" />
<line x1="69.36" y1="88.90" x2="28.11" y2="85.69" stroke="black" stroke-width="0.10" stroke-opacity="0.10" />
<line x1="69.36" y1="88.90" x2="69.36" y2="88.90" stroke="black" stroke-width="0.10" stroke-opacity="0.10" />
<line x1="69.36" y1="88.90" x2="83.13" y2="75.64" stroke="black" stroke-width="0.10" stroke-opacity="0.10" />
<line x1="69.36" y1="88.90" x2="3.93" y2="18.79" stroke="black" stroke-width="0.10" stroke-opacity="0.10" />
<line x1="69.36" y1="88.90" x2="91.79" y2="37.38" stroke="black" stroke-width="0.10" stroke-opacity="0.10" />
<line x1="83.13" y1="75.64" x2="15.61" y2="38.42" stroke="black" stroke-width="0.10" stroke-opacity="0.10" />
<line x1="83.13" y1="75.64" x2="85.80" y2="78.79" stroke="black" stroke-width="2.85" stroke-opacity="0.95" />
<line x1="83.13" y1="75.64" x2="96.49" y2="93.29" stroke="black" stroke-width="0.10" stroke-opacity="0.10" />
<line x1="83.13" y1="75.64" x2="50.02" y2="57.12" stroke="black" stroke-width="0.10" stroke-opacity="0.10" />
<line x1="83.13" y1="75.64" x2="27.74" y2="58.74" stroke="black" stroke-width="0.10" stroke-opacity="0.10" />
<line x1="83.13" y1="75.64" x2="6.46" y2="37.65" stroke="black" stroke-width="0.10" stroke-opacity="0.10" />
<line x1="83.13" y1="75.64" x2="14.80" y2="76.15" stroke="black" stroke-width="0.10" stroke-opacity="0.10" />
<line x1="83.13" y1="75.64" x2="88.53" y2="71.72" stroke="black" stroke-width="0.10" stroke-opacity="0.10" />
<line x1="83.13" y1="75.64" x2="45.57" y2="92.23" stroke="black" stroke-width="0.10" stroke-opacity="0.10" />
<line x1="83.13" y1="75.64" x2="0.76" y2="26.54" stroke="black" stroke-width="0.10" stroke-opacity="0.10" />
<line x1="83.13" y1="75.64" x2="81.93" y2="51.99" stroke="black" stroke-width="0.10" stroke-opacity="0.10" />
<line x1="83.13" y1="75.64" x2="33.45" y2="7.87" stroke="black" stroke-width="0.10" stroke-opacity="0.10" />
<line x1="83.13" y1="75.64" x2="95.85" y2="45.68" stroke="black" stroke-width="0.10" stroke-opacity="0.10" />
<line x1="83.13" y1="75.64" x2="6.82" y2="35.02" stroke="black" stroke-width="0.10" stroke-opacity="0.10" />
<line x1="83.13" y1="75.64" x2="57.34" y2="55.05" stroke="black" stroke-width="0.10" stroke-opacity="0.10" />
<line x1="83.13" y1="75.64" x2="28.11" y2="85.69" stroke="black" stroke-width="0.10" stroke-opacity="0.10" />
<line x1="83.13" y1="75.64" x2="69.36" y2="88.90" stroke="black" stroke-width="0.10" stroke-opacity="0.10" />
<line x1="83.13" y1="75.64" x2="83.13" y2="75.64" stroke="black" stroke-width="0.10" stroke-opacity="0.10" />
<line x1="83.13" y1="75.64" x2="3.93" y2="18.79" stroke="black" stroke-width="0.10" stroke-opacity="0.10" />
<line x1="83.13" y1="75.64" x2="91.79" y2="37.38" stroke="black" stroke-width="0.10" stroke-opacity="0.10" />
<line x1="3.93" y1="18.79" x2="15.61" y2="38.42" stroke="black" stroke-width="0.10" stroke-opacity="0.10" />
<line x1="3.93" y1="18.79" x2="85.80" y2="78.79" stroke="black" stroke-width="0.10" stroke-opacity="0.10" />
<line x1="3.93" y1="18.79" x2="96.49" y2="93.29" stroke="black" stroke-width="0.10" stroke-opacity="0.10" />
<line x1="3.93" y1="18.79" x2="50.02" y2="57.12" stroke="black" stroke-width="0.10" stroke-opacity="0.10" />
<line x1="3.93" y1="18.79" x2="27.74" y2="58.74" stroke="black" stroke-width="0.10" stroke-opacity="0.10" />
<line x1="3.93" y1="18.79" x2="6.46" y2="37.65" stroke="black" stroke-width="0.10" stroke-opacity="0.10" />
<line x1="3.93" y1="18.79" x2="14.80" y2="76.15" stroke="black" stroke-width="0.10" stroke-opacity="0.10" />
<line x1="3.93" y1="18.79" x2="88.53" y2="71.72" stroke="black" stroke-width="0.10" stroke-opacity="0.10" />
<line x1="3.93" y1="18.79" x2="45.57" y2="92.23" stroke="black" stroke-width="0.10" stroke-opacity="0.10" />
<line x1="3.93" y1="18.79" x2="0.76" y2="26.54" stroke="black" stroke-width="0.10" stroke-opacity="0.10" />
<line x1="3.93" y1="18.79" x2="81.93" y2="51.99" stroke="black" stroke-width="0.10" stroke-opacity="0.10" />
<line x1="3.93" y1="18.79" x2="33.45" y2="7.87" stroke="black" stroke-width="2.76" stroke-opacity="0.93" />
<line x1="3.93" y1="18.79" x2="95.85" y2="45.68" stroke="black" stroke-width="0.10" stroke-opacity="0.10" />
<line x1="3.93" y1="18.79" x2="6.82" y2="35.02" stroke="black" stroke-width="0.10" stroke-opacity="0.10" />
<line x1="3.93" y1="18.79" x2="57.34" y2="55.05" stroke="black" stroke-width="0.10" stroke-opacity="0.10" />
<line x1="3.93" y1="18.79" x2="28.11" y2="85.69" stroke="black" stroke-width="0.10" stroke-opacity="0.10" />
<line x1="3.93" y1="18.79" x2="69.36" y2="88.90" stroke="black" stroke-width="0.10" stroke-opacity="0.10" />
<line x1="3.93" y1="18.79" x2="83.13" y2="75.64" stroke="black" stroke-width="0.10" stroke-opacity="0.10" />
<line x1="3.93" y1="18.79" x2="3.93" y2="18.79" stroke="black" stroke-width="0.10" stroke-opacity="0.10" />
<line x1="3.93" y1="18.79" x2="91.79" y2="37.38" stroke="black" stroke-width="0.10" stroke-opacity="0.10" />
<line x1="91.79" y1="37.38" x2="15.61" y2="38.42" stroke="black" stroke-width="0.10" stroke-opacity="0.10" />
<line x1="91.79" y1="37.38" x2="85.80" y2="78.79" stroke="black" stroke-width="0.10" stroke-opacity="0.10" />
<line x1="91.79" y1="37.38" x2="96.49" y2="93.29" stroke="black" stroke-width="0.10" stroke-opacity="0.10" />
<line x1="91.79" y1="37.38" x2="50.02" y2="57.12" stroke="black" stroke-width="0.10" stroke-opacity="0.10" />
<line x1="91.79" y1="37.38" x2="27.74" y2="58.74" stroke="black" stroke-width="0.10" stroke-opacity="0.10" />
<line x1="91.79" y1="37.38" x2="6.46" y2="37.65" stroke="black" stroke-width="0.10" stroke-opacity="0.10" />
<line x1="91.79" y1="37.38" x2="14.80" y2="76.15" stroke="black" stroke-width="0.10" stroke-opacity="0.10" />
<line x1="91.79" y1="37.38" x2="88.53" y2="71.72" stroke="black" stroke-width="2.92" stroke-opacity="0.98" />
<line x1="91.79" y1="37.38" x2="45.57" y2="92.23" stroke="black" stroke-width="0.10" stroke-opacity="0.10" />
<line x1="91.79" y1="37.38" x2="0.76" y2="26.54" stroke="black" stroke-width="0.10" stroke-opacity="0.10" />
<line x1="91.79" y1="37.38" x2="81.93" y2="51.99" stroke="black" stroke-width="0.10" stroke-opacity="0.10" />
<line x1="91.79" y1="37.38" x2="33.45" y2="7.87" stroke="black" stroke-width="0.10" stroke-opacity="0.10" />
<line x1="91.79" y1="37.38" x2="95.85" y2="45.68" stroke="black" stroke-width="0.10" stroke-opacity="0.10" />
<line x1="91.79" y1="37.38" x2="6.82" y2="35.02" stroke="black" stroke-width="0.10" stroke-opacity="0.10" />
<line x1="91.79" y1="37.38" x2="57.34" y2="55.05" stroke="black" stroke-width="0.10" stroke-opacity="0.10" />
<line x1="91.79" y1="37.38" x2="28.11" y2="85.69" stroke="black" stroke-width="0.10" stroke-opacity="0.10" />
<line x1="91.79" y1="37.38" x2="69.36" y2="88.90" stroke="black" stroke-width="0.10" stroke-opacity="0.10" />
<line x1="91.79" y1="37.38" x2="83.13" y2="75.64" stroke="black" stroke-width="0.10" stroke-opacity="0.10" />
<line x1="91.79" y1="37.38" x2="3.93" y2="18.79" stroke="black" stroke-width="0.10" stroke-opacity="0.10" />
<line x1="91.79" y1="37.38" x2="91.79" y2="37.38" stroke="black" stroke-width="0.10" stroke-opacity="0.10" />
</svg>
